<svg width="489" height="558" viewBox="0 0 489 558" fill="none" xmlns="http://www.w3.org/2000/svg">
<g clip-path="url(#clip0_61_4)" filter="url(#filter0_b_61_4)">
<rect width="489" height="558" fill="white" fill-opacity="0.17"/>
<path d="M40.752 66.208C41.904 66.208 42.648 68.008 42.984 71.608L43.272 75.496C43.272 78.424 42.744 86.056 41.688 98.392H42.12V98.608L42.408 98.392H42.984L51.408 99.04H51.984L55.584 97.96H56.088C56.856 98.44 57.384 99.112 57.672 99.976C57.672 101.8 55.632 102.928 51.552 103.36L44.208 102.64H42.84L39.384 103.576C38.088 103.096 37.44 102.328 37.44 101.272L38.952 76.576V75.496L38.52 68.296C38.52 67.096 39.264 66.4 40.752 66.208ZM63.4629 63.112C64.6149 63.112 65.3589 63.712 65.6949 64.912L65.2629 69.16V70.528C66.4629 80.464 67.2069 88.192 67.4949 93.712C68.0229 98.848 68.5749 101.416 69.1509 101.416C69.1509 102.424 68.3109 103.072 66.6309 103.36C64.2309 103.36 63.0309 98.512 63.0309 88.816L61.0149 70.096V69.448C61.0149 65.224 61.8309 63.112 63.4629 63.112ZM94.1895 48.928C94.9575 48.928 95.6535 49.672 96.2775 51.16C96.2775 52.312 94.5255 53.272 91.0215 54.04C86.6055 56.488 83.1735 60.76 80.7255 66.856C78.3255 72.952 77.1255 78.976 77.1255 84.928C77.1255 94.48 80.1975 100.624 86.3415 103.36L88.6455 103.792C93.7815 103.792 97.4295 99.304 99.5895 90.328L99.8775 87.376C99.8775 83.536 98.5815 80.32 95.9895 77.728H95.5575C94.5495 78.88 92.5335 82.936 89.5095 89.896L87.9255 90.976C86.5815 90.976 85.8135 90.16 85.6215 88.528C90.1815 77.728 93.2775 72.328 94.9095 72.328H95.3415C101.198 75.736 104.126 80.752 104.126 87.376C104.126 94.864 101.054 101.104 94.9095 106.096C93.9015 106.96 91.8615 107.608 88.7895 108.04C82.9815 108.04 78.1815 103.84 74.3895 95.44C73.3815 91.84 72.8775 88.552 72.8775 85.576V84.496C72.8775 74.224 76.1655 64.528 82.7415 55.408C87.0135 51.088 90.8295 48.928 94.1895 48.928ZM113.159 62.896C114.839 62.896 115.679 65.824 115.679 71.68L116.111 82.912H116.255L127.775 78.448C128.927 68.656 129.983 63.76 130.943 63.76L131.879 63.616C132.695 63.616 133.439 64.264 134.111 65.56C132.431 73.816 131.591 80.968 131.591 87.016V90.112C131.591 94.528 132.647 98.728 134.759 102.712C134.279 104.056 133.511 104.728 132.455 104.728C130.151 104.728 128.447 100.072 127.343 90.76V83.416H126.911C119.711 85.96 116.111 87.592 116.111 88.312C116.111 99.736 115.055 105.448 112.943 105.448H112.655C111.647 105.448 110.999 104.608 110.711 102.928C111.431 97.696 111.791 93.64 111.791 90.76L108.623 92.416L107.975 92.56C106.775 92.128 106.175 91.384 106.175 90.328C106.175 89.272 108.047 87.616 111.791 85.36V85.216C111.647 76.96 111.335 70.12 110.855 64.696C110.855 63.64 111.623 63.04 113.159 62.896ZM151.814 57.568L173.414 56.2C174.038 56.2 174.638 56.8 175.214 58C175.214 59.824 173.102 60.736 168.878 60.736L156.278 61.456L155.99 61.6C157.19 69.424 157.79 84.28 157.79 106.168C157.55 108.28 156.782 109.336 155.486 109.336C154.238 109.336 153.518 108.376 153.326 106.456V89.752C153.326 78.616 152.822 69.328 151.814 61.888C143.222 62.704 138.926 63.664 138.926 64.768L138.278 65.056C136.79 64.624 136.046 63.856 136.046 62.752C136.046 60.112 141.302 58.384 151.814 57.568ZM174.624 62.536C176.592 60.28 178.704 59.152 180.96 59.152C183.216 59.152 184.56 60.88 184.992 64.336V64.552C184.992 66.28 184.008 70.048 182.04 75.856L185.424 75.136C189.552 75.136 191.952 77.776 192.624 83.056V84.136C192.624 90.472 188.64 96.256 180.672 101.488C178.08 102.496 176.208 103 175.056 103C171.168 103 168.48 100.744 166.992 96.232C167.088 95.704 167.688 94.96 168.792 94C169.32 72.304 169.776 61.456 170.16 61.456C170.976 60.64 171.72 60.232 172.392 60.232C173.688 60.712 174.336 61.48 174.336 62.536H174.624ZM173.904 82.336H174.192C178.128 74.896 180.216 69.136 180.456 65.056V63.4H179.736C178.728 63.4 177.384 66.112 175.704 71.536C174.504 76.672 173.904 80.272 173.904 82.336ZM176.64 86.8L175.56 87.232L173.76 87.088V87.232L173.472 88.168V95.656L173.256 98.32L174.84 98.752C178.92 98.752 182.952 95.68 186.936 89.536C188.04 86.8 188.592 84.544 188.592 82.768C188.592 80.56 187.536 79.456 185.424 79.456H185.136C182.832 79.456 180 81.904 176.64 86.8ZM211.917 70.6C211.917 63.688 212.973 60.232 215.085 60.232C217.197 60.232 218.253 64.144 218.253 71.968L217.317 82.552C217.317 91.576 218.517 98.536 220.917 103.432V103.72C220.917 104.68 220.269 105.28 218.973 105.52H218.685C216.909 105.424 215.349 102.04 214.005 95.368H213.717C211.221 102.856 208.029 106.6 204.141 106.6C200.253 106.6 197.757 103.456 196.653 97.168L196.437 92.92V91.552L197.517 75.136V71.968C197.517 71.008 198.069 70.264 199.173 69.736H199.821C201.165 69.736 201.837 70.624 201.837 72.4V72.832L200.685 92.056V94.72C200.685 98.56 201.597 101.104 203.421 102.352H204.717C207.165 100.864 209.517 95.824 211.773 87.232L212.853 82.336L211.917 70.6ZM228.205 66.208C229.357 66.208 230.101 68.008 230.437 71.608L230.725 75.496C230.725 78.424 230.197 86.056 229.141 98.392H229.573V98.608L229.861 98.392H230.437L238.861 99.04H239.437L243.037 97.96H243.541C244.309 98.44 244.837 99.112 245.125 99.976C245.125 101.8 243.085 102.928 239.005 103.36L231.661 102.64H230.293L226.837 103.576C225.541 103.096 224.893 102.328 224.893 101.272L226.405 76.576V75.496L225.973 68.296C225.973 67.096 226.717 66.4 228.205 66.208ZM253.796 62.536C255.764 60.28 257.876 59.152 260.132 59.152C262.388 59.152 263.732 60.88 264.164 64.336V64.552C264.164 66.28 263.18 70.048 261.212 75.856L264.596 75.136C268.724 75.136 271.124 77.776 271.796 83.056V84.136C271.796 90.472 267.812 96.256 259.844 101.488C257.252 102.496 255.38 103 254.228 103C250.34 103 247.652 100.744 246.164 96.232C246.26 95.704 246.86 94.96 247.964 94C248.492 72.304 248.948 61.456 249.332 61.456C250.148 60.64 250.892 60.232 251.564 60.232C252.86 60.712 253.508 61.48 253.508 62.536H253.796ZM253.076 82.336H253.364C257.3 74.896 259.388 69.136 259.628 65.056V63.4H258.908C257.9 63.4 256.556 66.112 254.876 71.536C253.676 76.672 253.076 80.272 253.076 82.336ZM255.812 86.8L254.732 87.232L252.932 87.088V87.232L252.644 88.168V95.656L252.428 98.32L254.012 98.752C258.092 98.752 262.124 95.68 266.108 89.536C267.212 86.8 267.764 84.544 267.764 82.768C267.764 80.56 266.708 79.456 264.596 79.456H264.308C262.004 79.456 259.172 81.904 255.812 86.8Z" fill="url(#paint0_linear_61_4)"/>
<path d="M279.239 87.751C280.435 87.751 281.148 88.556 281.378 90.166C281.378 91.132 280.665 91.845 279.239 92.305C278.135 92.305 277.468 91.362 277.238 89.476C277.836 88.326 278.503 87.751 279.239 87.751ZM279.446 95.479C280.872 96.031 281.585 96.905 281.585 98.101C281.585 99.067 280.941 99.642 279.653 99.826C278.503 99.826 277.698 99.044 277.238 97.48C277.744 96.146 278.48 95.479 279.446 95.479ZM314.582 64.774C315.686 64.774 316.399 65.349 316.721 66.499L316.307 70.57V71.881C317.457 81.403 318.17 88.809 318.446 94.099C318.952 99.021 319.481 101.482 320.033 101.482C320.033 102.448 319.228 103.069 317.618 103.345C315.318 103.345 314.168 98.699 314.168 89.407L312.236 71.467V70.846C312.236 66.798 313.018 64.774 314.582 64.774ZM344.029 51.181C344.765 51.181 345.432 51.894 346.03 53.32C346.03 54.424 344.351 55.344 340.993 56.08C336.761 58.426 333.472 62.52 331.126 68.362C328.826 74.204 327.676 79.977 327.676 85.681C327.676 94.835 330.62 100.723 336.508 103.345L338.716 103.759C343.638 103.759 347.134 99.458 349.204 90.856L349.48 88.027C349.48 84.347 348.238 81.265 345.754 78.781H345.34C344.374 79.885 342.442 83.772 339.544 90.442L338.026 91.477C336.738 91.477 336.002 90.695 335.818 89.131C340.188 78.781 343.155 73.606 344.719 73.606H345.133C350.745 76.872 353.551 81.679 353.551 88.027C353.551 95.203 350.607 101.183 344.719 105.967C343.753 106.795 341.798 107.416 338.854 107.83C333.288 107.83 328.688 103.805 325.054 95.755C324.088 92.305 323.605 89.154 323.605 86.302V85.267C323.605 75.423 326.756 66.131 333.058 57.391C337.152 53.251 340.809 51.181 344.029 51.181ZM361.932 64.912C364.094 65.602 368.211 73.997 374.283 90.097L375.318 91.339V87.475C375.318 77.217 377.848 69.972 382.908 65.74C384.058 65.74 384.771 66.522 385.047 68.086C381.597 73.238 379.872 77.401 379.872 80.575C379.642 80.575 379.504 82.024 379.458 84.922V88.579C379.458 91.753 379.803 96.284 380.493 102.172C380.079 103.322 379.343 103.897 378.285 103.897C377.227 103.897 375.732 101.735 373.8 97.411C371.454 93.685 368.878 88.027 366.072 80.437H365.796V80.851L366.21 89.614C366.21 98.676 364.485 104.518 361.035 107.14L359.31 107.347C357.884 107.347 356.688 106.036 355.722 103.414C356.044 101.988 356.757 101.275 357.861 101.275H358.275L359.586 102.379H359.793C361.403 100.217 362.208 96.123 362.208 90.097C362.208 84.025 361.334 76.343 359.586 67.051C359.586 65.809 360.368 65.096 361.932 64.912ZM389.714 64.774C390.818 64.774 391.531 65.349 391.853 66.499L391.439 70.57V71.881C392.589 81.403 393.302 88.809 393.578 94.099C394.084 99.021 394.613 101.482 395.165 101.482C395.165 102.448 394.36 103.069 392.75 103.345C390.45 103.345 389.3 98.699 389.3 89.407L387.368 71.467V70.846C387.368 66.798 388.15 64.774 389.714 64.774ZM412.122 59.461L432.822 58.15C433.42 58.15 433.995 58.725 434.547 59.875C434.547 61.623 432.523 62.497 428.475 62.497L416.4 63.187L416.124 63.325C417.274 70.823 417.849 85.06 417.849 106.036C417.619 108.06 416.883 109.072 415.641 109.072C414.445 109.072 413.755 108.152 413.571 106.312V90.304C413.571 79.632 413.088 70.731 412.122 63.601C403.888 64.383 399.771 65.303 399.771 66.361L399.15 66.637C397.724 66.223 397.011 65.487 397.011 64.429C397.011 61.899 402.048 60.243 412.122 59.461ZM448.679 63.187C449.507 63.187 450.082 63.9 450.404 65.326C450.404 66.154 448.955 67.304 446.057 68.776C442.469 71.904 439.801 77.286 438.053 84.922V86.164C442.055 84.186 444.93 82.99 446.678 82.576C447.23 82.576 447.897 83.059 448.679 84.025V85.336C448.679 85.842 446.655 86.854 442.607 88.372C439.571 90.028 438.053 90.971 438.053 91.201V91.822C438.053 94.398 439.709 96.629 443.021 98.515L445.367 98.929C446.885 98.929 449.139 97.986 452.129 96.1H452.957C453.923 96.56 454.406 97.227 454.406 98.101V98.515C451.554 101.505 448.403 103 444.953 103C440.031 103 436.443 99.688 434.189 93.064L429.842 93.961C427.726 93.639 426.668 92.949 426.668 91.891C426.668 90.833 427.289 90.074 428.531 89.614L430.118 89.89C432.51 89.2 433.706 88.694 433.706 88.372C433.706 80.552 436.673 73.307 442.607 66.637C445.597 64.337 447.621 63.187 448.679 63.187ZM40.554 167.774C41.658 167.774 42.371 168.349 42.693 169.499L42.279 173.57V174.881C43.429 184.403 44.142 191.809 44.418 197.099C44.924 202.021 45.453 204.482 46.005 204.482C46.005 205.448 45.2 206.069 43.59 206.345C41.29 206.345 40.14 201.699 40.14 192.407L38.208 174.467V173.846C38.208 169.798 38.99 167.774 40.554 167.774ZM54.7513 167.912C56.9133 168.602 61.0303 176.997 67.1023 193.097L68.1373 194.339V190.475C68.1373 180.217 70.6673 172.972 75.7273 168.74C76.8773 168.74 77.5903 169.522 77.8663 171.086C74.4163 176.238 72.6913 180.401 72.6913 183.575C72.4613 183.575 72.3233 185.024 72.2773 187.922V191.579C72.2773 194.753 72.6223 199.284 73.3123 205.172C72.8983 206.322 72.1623 206.897 71.1043 206.897C70.0463 206.897 68.5513 204.735 66.6193 200.411C64.2733 196.685 61.6973 191.027 58.8913 183.437H58.6153V183.851L59.0293 192.614C59.0293 201.676 57.3043 207.518 53.8543 210.14L52.1293 210.347C50.7033 210.347 49.5073 209.036 48.5413 206.414C48.8633 204.988 49.5763 204.275 50.6803 204.275H51.0943L52.4053 205.379H52.6123C54.2223 203.217 55.0273 199.123 55.0273 193.097C55.0273 187.025 54.1533 179.343 52.4053 170.051C52.4053 168.809 53.1873 168.096 54.7513 167.912ZM84.5345 167.912C86.6965 168.602 90.8135 176.997 96.8855 193.097L97.9205 194.339V190.475C97.9205 180.217 100.45 172.972 105.51 168.74C106.66 168.74 107.373 169.522 107.649 171.086C104.199 176.238 102.474 180.401 102.474 183.575C102.244 183.575 102.106 185.024 102.06 187.922V191.579C102.06 194.753 102.405 199.284 103.095 205.172C102.681 206.322 101.945 206.897 100.887 206.897C99.8295 206.897 98.3345 204.735 96.4025 200.411C94.0565 196.685 91.4805 191.027 88.6745 183.437H88.3985V183.851L88.8125 192.614C88.8125 201.676 87.0875 207.518 83.6375 210.14L81.9125 210.347C80.4865 210.347 79.2905 209.036 78.3245 206.414C78.6465 204.988 79.3595 204.275 80.4635 204.275H80.8775L82.1885 205.379H82.3955C84.0055 203.217 84.8105 199.123 84.8105 193.097C84.8105 187.025 83.9365 179.343 82.1885 170.051C82.1885 168.809 82.9705 168.096 84.5345 167.912ZM117.837 168.671L119.562 168.395H120.252C121.172 168.395 122.184 168.97 123.288 170.12C125.312 170.12 128.187 172.65 131.913 177.71C135.087 183.69 136.674 189.003 136.674 193.649C136.674 199.997 134.374 204.229 129.774 206.345L125.427 207.242C118.527 207.242 113.559 202.067 110.523 191.717C109.833 189.003 109.488 186.358 109.488 183.782V183.092C109.488 175.318 112.271 170.511 117.837 168.671ZM117.216 175.295L115.698 174.674C114.272 176.376 113.559 178.837 113.559 182.057V183.92C113.559 192.43 116.434 198.617 122.184 202.481L124.116 202.895H126.738C129.13 202.895 130.855 201.4 131.913 198.41L132.327 195.374V193.235C132.327 186.335 129.59 180.148 124.116 174.674L121.287 173.846H121.149C120.229 173.846 118.918 174.329 117.216 175.295ZM167.27 164.807C168.144 164.807 168.719 165.52 168.995 166.946C168.995 167.774 167.569 168.855 164.717 170.189C162.233 171.753 160.025 175.502 158.093 181.436C155.793 191.05 154.643 199.537 154.643 206.897C153.861 207.587 153.125 207.932 152.435 207.932C151.285 207.932 150.204 205.632 149.192 201.032C142.154 183.46 138.635 173.754 138.635 171.914C138.635 170.994 139.371 170.419 140.843 170.189C142.039 170.189 143.189 172.558 144.293 177.296L150.917 194.339H151.193C151.469 194.339 151.883 192.039 152.435 187.439C154.183 180.171 155.908 175.157 157.61 172.397C161.428 167.337 164.648 164.807 167.27 164.807ZM180.027 165.014L181.752 164.462C183.316 164.462 184.098 166.532 184.098 170.672L186.237 186.611L186.513 186.887L194.448 183.989C195.506 183.989 196.081 184.794 196.173 186.404C196.173 187.6 193.252 189.049 187.41 190.751L187.134 190.889V191.165C187.134 192.131 188.652 197.168 191.688 206.276V206.414C191.688 207.288 190.975 208.024 189.549 208.622C188.215 208.622 187.341 207.035 186.927 203.861C185.869 201.561 184.581 197.766 183.063 192.476H182.787C176.761 193.718 173.748 194.776 173.748 195.65C170.436 202.826 167.929 206.414 166.227 206.414C165.261 206.414 164.686 205.793 164.502 204.551C164.502 203.447 165.721 201.285 168.159 198.065L169.263 195.65H167.538L166.227 195.926C164.525 195.512 163.674 194.638 163.674 193.304C164.364 191.694 165.376 190.889 166.71 190.889L168.435 191.579C171.011 191.579 172.299 190.636 172.299 188.75C174.645 183.23 177.221 175.318 180.027 165.014ZM180.648 177.572L176.577 189.854C180.349 189.118 182.235 188.405 182.235 187.715C181.545 180.953 181.016 177.572 180.648 177.572ZM211.676 162.461L232.376 161.15C232.974 161.15 233.549 161.725 234.101 162.875C234.101 164.623 232.077 165.497 228.029 165.497L215.954 166.187L215.678 166.325C216.828 173.823 217.403 188.06 217.403 209.036C217.173 211.06 216.437 212.072 215.195 212.072C213.999 212.072 213.309 211.152 213.125 209.312V193.304C213.125 182.632 212.642 173.731 211.676 166.601C203.442 167.383 199.325 168.303 199.325 169.361L198.704 169.637C197.278 169.223 196.565 168.487 196.565 167.429C196.565 164.899 201.602 163.243 211.676 162.461ZM230.776 167.774C231.88 167.774 232.593 168.349 232.915 169.499L232.501 173.57V174.881C233.651 184.403 234.364 191.809 234.64 197.099C235.146 202.021 235.675 204.482 236.227 204.482C236.227 205.448 235.422 206.069 233.812 206.345C231.512 206.345 230.362 201.699 230.362 192.407L228.43 174.467V173.846C228.43 169.798 229.212 167.774 230.776 167.774ZM248.492 168.671L250.217 168.395H250.907C251.827 168.395 252.839 168.97 253.943 170.12C255.967 170.12 258.842 172.65 262.568 177.71C265.742 183.69 267.329 189.003 267.329 193.649C267.329 199.997 265.029 204.229 260.429 206.345L256.082 207.242C249.182 207.242 244.214 202.067 241.178 191.717C240.488 189.003 240.143 186.358 240.143 183.782V183.092C240.143 175.318 242.926 170.511 248.492 168.671ZM247.871 175.295L246.353 174.674C244.927 176.376 244.214 178.837 244.214 182.057V183.92C244.214 192.43 247.089 198.617 252.839 202.481L254.771 202.895H257.393C259.785 202.895 261.51 201.4 262.568 198.41L262.982 195.374V193.235C262.982 186.335 260.245 180.148 254.771 174.674L251.942 173.846H251.804C250.884 173.846 249.573 174.329 247.871 175.295ZM275.363 167.912C277.525 168.602 281.642 176.997 287.714 193.097L288.749 194.339V190.475C288.749 180.217 291.279 172.972 296.339 168.74C297.489 168.74 298.202 169.522 298.478 171.086C295.028 176.238 293.303 180.401 293.303 183.575C293.073 183.575 292.935 185.024 292.889 187.922V191.579C292.889 194.753 293.234 199.284 293.924 205.172C293.51 206.322 292.774 206.897 291.716 206.897C290.658 206.897 289.163 204.735 287.231 200.411C284.885 196.685 282.309 191.027 279.503 183.437H279.227V183.851L279.641 192.614C279.641 201.676 277.916 207.518 274.466 210.14L272.741 210.347C271.315 210.347 270.119 209.036 269.153 206.414C269.475 204.988 270.188 204.275 271.292 204.275H271.706L273.017 205.379H273.224C274.834 203.217 275.639 199.123 275.639 193.097C275.639 187.025 274.765 179.343 273.017 170.051C273.017 168.809 273.799 168.096 275.363 167.912ZM307.906 193.442C310.298 194.5 311.724 197.743 312.184 203.171C312.184 208.185 310.229 212.785 306.319 216.971L305.491 217.385C304.065 216.925 303.352 216.212 303.352 215.246L306.181 210.692C307.331 208.346 307.906 205.977 307.906 203.585V201.032C307.906 199.882 307.193 198.157 305.767 195.857V195.581C306.089 194.155 306.802 193.442 307.906 193.442ZM40.554 270.774C41.658 270.774 42.371 271.349 42.693 272.499L42.279 276.57V277.881C43.429 287.403 44.142 294.809 44.418 300.099C44.924 305.021 45.453 307.482 46.005 307.482C46.005 308.448 45.2 309.069 43.59 309.345C41.29 309.345 40.14 304.699 40.14 295.407L38.208 277.467V276.846C38.208 272.798 38.99 270.774 40.554 270.774ZM52.7503 273.741C53.8543 273.741 54.5673 275.466 54.8893 278.916L55.1653 282.642C55.1653 285.448 54.6593 292.762 53.6473 304.584H54.0613V304.791L54.3373 304.584H54.8893L62.9623 305.205H63.5143L66.9643 304.17H67.4473C68.1833 304.63 68.6893 305.274 68.9653 306.102C68.9653 307.85 67.0103 308.931 63.1003 309.345L56.0623 308.655H54.7513L51.4393 309.552C50.1973 309.092 49.5763 308.356 49.5763 307.344L51.0253 283.677V282.642L50.6113 275.742C50.6113 274.592 51.3243 273.925 52.7503 273.741ZM74.5149 273.741C75.6189 273.741 76.3319 275.466 76.6539 278.916L76.9299 282.642C76.9299 285.448 76.4239 292.762 75.4119 304.584H75.8259V304.791L76.1019 304.584H76.6539L84.7269 305.205H85.2789L88.7289 304.17H89.2119C89.9479 304.63 90.4539 305.274 90.7299 306.102C90.7299 307.85 88.7749 308.931 84.8649 309.345L77.8269 308.655H76.5159L73.2039 309.552C71.9619 309.092 71.3409 308.356 71.3409 307.344L72.7899 283.677V282.642L72.3759 275.742C72.3759 274.592 73.0889 273.925 74.5149 273.741ZM108.769 277.95C108.769 271.326 109.781 268.014 111.805 268.014C113.829 268.014 114.841 271.763 114.841 279.261L113.944 289.404C113.944 298.052 115.094 304.722 117.394 309.414V309.69C117.394 310.61 116.773 311.185 115.531 311.415H115.255C113.553 311.323 112.058 308.08 110.77 301.686H110.494C108.102 308.862 105.043 312.45 101.317 312.45C97.5906 312.45 95.1986 309.437 94.1406 303.411L93.9336 299.34V298.029L94.9686 282.297V279.261C94.9686 278.341 95.4976 277.628 96.5556 277.122H97.1766C98.4646 277.122 99.1086 277.973 99.1086 279.675V280.089L98.0046 298.512V301.065C98.0046 304.745 98.8786 307.183 100.627 308.379H101.869C104.215 306.953 106.469 302.123 108.631 293.889L109.666 289.197L108.769 277.95ZM141.007 258.63H141.214C142.364 259.228 142.939 259.895 142.939 260.631L141.214 273.741C141.214 278.525 142.64 288.438 145.492 303.48L148.942 312.105C148.942 312.703 148.459 313.37 147.493 314.106H146.182C145.262 313.83 143.882 311.001 142.042 305.619C140.846 301.295 139.65 294.625 138.454 285.609H138.04C135.372 293.521 133.486 297.615 132.382 297.891L131.278 298.167C130.312 298.167 129.116 296.281 127.69 292.509H127.207C126.655 303.871 125.574 309.552 123.964 309.552H123.757C122.285 309.552 121.48 308.402 121.342 306.102C122.492 301.686 123.067 297.086 123.067 292.302L121.204 274.017V272.706C121.204 270.958 121.825 270.084 123.067 270.084C124.861 270.084 126.448 273.603 127.828 280.641C129.852 287.035 131.094 290.485 131.554 290.991C132.612 289.335 133.67 286.391 134.728 282.159C135.556 279.997 136.361 276.616 137.143 272.016L136.867 271.809L137.143 270.705V270.291C137.557 262.517 138.845 258.63 141.007 258.63ZM154.364 270.774C155.468 270.774 156.181 271.349 156.503 272.499L156.089 276.57V277.881C157.239 287.403 157.952 294.809 158.228 300.099C158.734 305.021 159.263 307.482 159.815 307.482C159.815 308.448 159.01 309.069 157.4 309.345C155.1 309.345 153.95 304.699 153.95 295.407L152.018 277.467V276.846C152.018 272.798 152.8 270.774 154.364 270.774ZM168.561 270.912C170.723 271.602 174.84 279.997 180.912 296.097L181.947 297.339V293.475C181.947 283.217 184.477 275.972 189.537 271.74C190.687 271.74 191.4 272.522 191.676 274.086C188.226 279.238 186.501 283.401 186.501 286.575C186.271 286.575 186.133 288.024 186.087 290.922V294.579C186.087 297.753 186.432 302.284 187.122 308.172C186.708 309.322 185.972 309.897 184.914 309.897C183.856 309.897 182.361 307.735 180.429 303.411C178.083 299.685 175.507 294.027 172.701 286.437H172.425V286.851L172.839 295.614C172.839 304.676 171.114 310.518 167.664 313.14L165.939 313.347C164.513 313.347 163.317 312.036 162.351 309.414C162.673 307.988 163.386 307.275 164.49 307.275H164.904L166.215 308.379H166.422C168.032 306.217 168.837 302.123 168.837 296.097C168.837 290.025 167.963 282.343 166.215 273.051C166.215 271.809 166.997 271.096 168.561 270.912ZM207.452 268.014L209.177 267.462C210.741 267.462 211.523 269.532 211.523 273.672L213.662 289.611L213.938 289.887L221.873 286.989C222.931 286.989 223.506 287.794 223.598 289.404C223.598 290.6 220.677 292.049 214.835 293.751L214.559 293.889V294.165C214.559 295.131 216.077 300.168 219.113 309.276V309.414C219.113 310.288 218.4 311.024 216.974 311.622C215.64 311.622 214.766 310.035 214.352 306.861C213.294 304.561 212.006 300.766 210.488 295.476H210.212C204.186 296.718 201.173 297.776 201.173 298.65C197.861 305.826 195.354 309.414 193.652 309.414C192.686 309.414 192.111 308.793 191.927 307.551C191.927 306.447 193.146 304.285 195.584 301.065L196.688 298.65H194.963L193.652 298.926C191.95 298.512 191.099 297.638 191.099 296.304C191.789 294.694 192.801 293.889 194.135 293.889L195.86 294.579C198.436 294.579 199.724 293.636 199.724 291.75C202.07 286.23 204.646 278.318 207.452 268.014ZM208.073 280.572L204.002 292.854C207.774 292.118 209.66 291.405 209.66 290.715C208.97 283.953 208.441 280.572 208.073 280.572ZM239.101 265.461L259.801 264.15C260.399 264.15 260.974 264.725 261.526 265.875C261.526 267.623 259.502 268.497 255.454 268.497L243.379 269.187L243.103 269.325C244.253 276.823 244.828 291.06 244.828 312.036C244.598 314.06 243.862 315.072 242.62 315.072C241.424 315.072 240.734 314.152 240.55 312.312V296.304C240.55 285.632 240.067 276.731 239.101 269.601C230.867 270.383 226.75 271.303 226.75 272.361L226.129 272.637C224.703 272.223 223.99 271.487 223.99 270.429C223.99 267.899 229.027 266.243 239.101 265.461ZM275.657 269.187C276.485 269.187 277.06 269.9 277.382 271.326C277.382 272.154 275.933 273.304 273.035 274.776C269.447 277.904 266.779 283.286 265.031 290.922V292.164C269.033 290.186 271.908 288.99 273.656 288.576C274.208 288.576 274.875 289.059 275.657 290.025V291.336C275.657 291.842 273.633 292.854 269.585 294.372C266.549 296.028 265.031 296.971 265.031 297.201V297.822C265.031 300.398 266.687 302.629 269.999 304.515L272.345 304.929C273.863 304.929 276.117 303.986 279.107 302.1H279.935C280.901 302.56 281.384 303.227 281.384 304.101V304.515C278.532 307.505 275.381 309 271.931 309C267.009 309 263.421 305.688 261.167 299.064L256.82 299.961C254.704 299.639 253.646 298.949 253.646 297.891C253.646 296.833 254.267 296.074 255.509 295.614L257.096 295.89C259.488 295.2 260.684 294.694 260.684 294.372C260.684 286.552 263.651 279.307 269.585 272.637C272.575 270.337 274.599 269.187 275.657 269.187ZM313.859 270.774C314.963 270.774 315.676 271.349 315.998 272.499L315.584 276.57V277.881C316.734 287.403 317.447 294.809 317.723 300.099C318.229 305.021 318.758 307.482 319.31 307.482C319.31 308.448 318.505 309.069 316.895 309.345C314.595 309.345 313.445 304.699 313.445 295.407L311.513 277.467V276.846C311.513 272.798 312.295 270.774 313.859 270.774ZM329.436 268.704C335.922 268.704 342.178 272.154 348.204 279.054C350.044 282.688 350.964 286.207 350.964 289.611C350.964 297.615 346.893 303.503 338.751 307.275C336.129 308.425 333.3 309 330.264 309H328.539C326.837 308.954 325.986 308.241 325.986 306.861H325.779C325.779 305.619 326.561 304.975 328.125 304.929H329.712V304.515H329.85C326.998 292.417 325.572 283.424 325.572 277.536H325.365L323.64 278.64C322.444 278.64 321.731 277.835 321.501 276.225C321.501 273.695 322.927 271.487 325.779 269.601C326.929 269.003 328.148 268.704 329.436 268.704ZM330.264 272.775H329.712V276.087C329.712 283.631 331.138 293.107 333.99 304.515H334.197C342.707 302.215 346.962 297.247 346.962 289.611C346.962 281.423 342.201 275.949 332.679 273.189C332.127 272.913 331.322 272.775 330.264 272.775ZM374.373 269.187C375.201 269.187 375.776 269.9 376.098 271.326C376.098 272.154 374.649 273.304 371.751 274.776C368.163 277.904 365.495 283.286 363.747 290.922V292.164C367.749 290.186 370.624 288.99 372.372 288.576C372.924 288.576 373.591 289.059 374.373 290.025V291.336C374.373 291.842 372.349 292.854 368.301 294.372C365.265 296.028 363.747 296.971 363.747 297.201V297.822C363.747 300.398 365.403 302.629 368.715 304.515L371.061 304.929C372.579 304.929 374.833 303.986 377.823 302.1H378.651C379.617 302.56 380.1 303.227 380.1 304.101V304.515C377.248 307.505 374.097 309 370.647 309C365.725 309 362.137 305.688 359.883 299.064L355.536 299.961C353.42 299.639 352.362 298.949 352.362 297.891C352.362 296.833 352.983 296.074 354.225 295.614L355.812 295.89C358.204 295.2 359.4 294.694 359.4 294.372C359.4 286.552 362.367 279.307 368.301 272.637C371.291 270.337 373.315 269.187 374.373 269.187ZM397.674 268.014L399.399 267.462C400.963 267.462 401.745 269.532 401.745 273.672L403.884 289.611L404.16 289.887L412.095 286.989C413.153 286.989 413.728 287.794 413.82 289.404C413.82 290.6 410.899 292.049 405.057 293.751L404.781 293.889V294.165C404.781 295.131 406.299 300.168 409.335 309.276V309.414C409.335 310.288 408.622 311.024 407.196 311.622C405.862 311.622 404.988 310.035 404.574 306.861C403.516 304.561 402.228 300.766 400.71 295.476H400.434C394.408 296.718 391.395 297.776 391.395 298.65C388.083 305.826 385.576 309.414 383.874 309.414C382.908 309.414 382.333 308.793 382.149 307.551C382.149 306.447 383.368 304.285 385.806 301.065L386.91 298.65H385.185L383.874 298.926C382.172 298.512 381.321 297.638 381.321 296.304C382.011 294.694 383.023 293.889 384.357 293.889L386.082 294.579C388.658 294.579 389.946 293.636 389.946 291.75C392.292 286.23 394.868 278.318 397.674 268.014ZM398.295 280.572L394.224 292.854C397.996 292.118 399.882 291.405 399.882 290.715C399.192 283.953 398.663 280.572 398.295 280.572ZM436.775 268.152H437.465C438.753 268.152 439.489 268.911 439.673 270.429C439.673 271.763 437.856 272.43 434.222 272.43C428.38 274.638 424.447 277.858 422.423 282.09L421.94 284.091V284.505C421.94 286.529 423.297 287.541 426.011 287.541L433.601 287.127C438.707 287.127 442.157 289.611 443.951 294.579L444.365 296.994C444.365 301.778 440.501 306.148 432.773 310.104C430.473 310.748 428.449 311.185 426.701 311.415C422.009 311.415 418.697 308.77 416.765 303.48C416.213 301.686 415.937 299.869 415.937 298.029C415.937 297.477 416.374 296.902 417.248 296.304H418.076C419.502 296.304 420.215 298.121 420.215 301.755C421.411 305.343 423.297 307.137 425.873 307.137H427.736C431.462 307.137 435.142 304.975 438.776 300.651C439.742 299.271 440.225 297.776 440.225 296.166C440.225 293.912 438.454 292.325 434.912 291.405H434.636L425.597 291.612C420.583 291.014 418.076 288.944 418.076 285.402L417.8 284.505C417.8 279.767 421.342 275.167 428.426 270.705C431.508 269.003 434.291 268.152 436.775 268.152Z" fill="white"/>
<path d="M29.025 383.56C32.315 383.56 35.4883 385.31 38.545 388.81C39.4783 390.653 39.945 392.438 39.945 394.165C39.945 398.225 37.88 401.212 33.75 403.125C32.42 403.708 30.985 404 29.445 404H28.57C27.7067 403.977 27.275 403.615 27.275 402.915H27.17C27.17 402.285 27.5667 401.958 28.36 401.935H29.165V401.725H29.235C27.7883 395.588 27.065 391.027 27.065 388.04H26.96L26.085 388.6C25.4783 388.6 25.1167 388.192 25 387.375C25 386.092 25.7233 384.972 27.17 384.015C27.7533 383.712 28.3717 383.56 29.025 383.56ZM29.445 385.625H29.165V387.305C29.165 391.132 29.8883 395.938 31.335 401.725H31.44C35.7567 400.558 37.915 398.038 37.915 394.165C37.915 390.012 35.5 387.235 30.67 385.835C30.39 385.695 29.9817 385.625 29.445 385.625ZM41.7393 385.765C42.626 385.952 43.0693 386.348 43.0693 386.955C42.836 387.608 42.4626 387.935 41.9493 387.935C41.086 387.772 40.6543 387.34 40.6543 386.64C40.8876 386.057 41.2493 385.765 41.7393 385.765ZM43.0693 390.665C43.4426 390.665 43.7576 391.003 44.0143 391.68L43.6993 394.165V395.81C43.6993 397.723 44.026 400.232 44.6793 403.335C44.446 403.778 44.0493 404 43.4893 404C42.5326 404 41.9026 401.2 41.5993 395.6V394.375C41.5993 391.902 42.0893 390.665 43.0693 390.665ZM53.5154 389.825C54.1454 389.825 54.5771 390.887 54.8104 393.01C54.5771 393.593 54.1921 393.885 53.6554 393.885C53.2821 393.815 52.9088 393.383 52.5354 392.59L51.9054 392.38C50.8088 392.38 49.8171 393.103 48.9304 394.55V394.865C48.9304 395.215 50.5754 395.798 53.8654 396.615C55.2421 397.432 55.9304 398.423 55.9304 399.59C55.9304 401.503 54.3904 403.137 51.3104 404.49L50.0154 404.7C48.0554 404.49 47.0754 403.51 47.0754 401.76V401.655C47.0754 401.095 47.4371 400.768 48.1604 400.675C48.7204 400.675 49.0938 401.258 49.2804 402.425L49.5604 402.635H50.1554C51.4854 402.635 52.7221 401.725 53.8654 399.905V399.45C53.8654 398.75 52.3371 398.097 49.2804 397.49C47.6704 396.837 46.8654 395.927 46.8654 394.76C46.8654 393.243 48.1371 391.82 50.6804 390.49C51.8004 390.35 52.7454 390.128 53.5154 389.825ZM60.7829 392.135L62.2179 391.925C62.8012 391.925 63.1279 392.287 63.1979 393.01C63.1979 393.64 62.4395 394.048 60.9229 394.235C59.9662 394.982 59.4879 395.938 59.4879 397.105V398.26C59.9545 400.827 60.7479 402.11 61.8679 402.11H62.2179C62.8712 402.11 63.8512 401.492 65.1579 400.255H65.3679C65.8345 400.255 66.2079 400.582 66.4879 401.235C66.1612 402.238 65.1112 403.148 63.3379 403.965C63.0112 404.105 62.6029 404.175 62.1129 404.175C59.7095 404.175 58.1462 402.285 57.4229 398.505V397.735C57.4229 395.005 58.5429 393.138 60.7829 392.135ZM73.8529 390.805C75.5796 390.805 76.8862 392.088 77.7729 394.655L77.9129 395.39C77.9129 397.887 76.7462 400.442 74.4129 403.055C73.4796 403.918 72.5346 404.35 71.5779 404.35C70.1779 404.35 69.1862 403.545 68.6029 401.935C68.3929 401.188 68.2879 400.535 68.2879 399.975V399.555C68.2879 395.868 69.6296 393.068 72.3129 391.155C72.7796 390.922 73.2929 390.805 73.8529 390.805ZM70.3529 399.905C70.3529 401.492 70.7612 402.285 71.5779 402.285C73.2812 402.285 74.6929 400.103 75.8129 395.74V395.075C75.4162 393.628 74.6812 392.905 73.6079 392.905C73.1879 392.905 72.9779 393.197 72.9779 393.78C72.9779 394.177 72.5112 394.492 71.5779 394.725C70.7612 396.102 70.3529 397.828 70.3529 399.905ZM79.9888 392.205C80.5255 392.205 81.1088 393.488 81.7388 396.055C82.6255 398.108 83.1272 399.193 83.2438 399.31C83.3605 399.31 83.7922 398.143 84.5388 395.81C85.2855 393.477 85.9972 392.31 86.6738 392.31C87.3038 392.543 87.6188 392.917 87.6188 393.43C85.6822 398.423 84.7138 401.725 84.7138 403.335L84.0488 404H83.3838C82.5438 403.393 81.1205 400.185 79.1138 394.375L78.7988 393.08C78.9622 392.497 79.3588 392.205 79.9888 392.205ZM92.2525 391.435C93.1858 391.458 94.7608 393.092 96.9775 396.335L97.0475 396.93C97.0475 397.583 95.4492 398.085 92.2525 398.435L92.1475 398.54V398.68C92.6375 400.78 93.1508 401.83 93.6875 401.83H94.1075C94.8542 401.83 95.9858 401.025 97.5025 399.415H97.7125C98.1792 399.415 98.5408 399.753 98.7975 400.43C98.7975 400.99 97.8175 401.958 95.8575 403.335C95.3442 403.638 94.7258 403.86 94.0025 404C92.1125 404 90.7942 402.227 90.0475 398.68C88.9742 398.517 88.4375 398.073 88.4375 397.35C88.4375 396.837 88.8342 396.498 89.6275 396.335V396.475L89.9775 396.335V395.46C89.9775 392.777 90.7358 391.435 92.2525 391.435ZM92.4625 393.955H92.1475L92.0075 395.25V396.335H92.1475C93.4542 396.288 94.1075 396.148 94.1075 395.915C93.5008 395.005 92.9525 394.352 92.4625 393.955ZM104.763 390.21C106.233 390.21 107.108 391.237 107.388 393.29V393.605C107.388 395.868 106.221 397.945 103.888 399.835C105.241 401.165 107.609 401.83 110.993 401.83C111.506 401.993 111.763 402.355 111.763 402.915C111.763 403.545 111.354 403.86 110.538 403.86C108.251 403.86 105.848 403.277 103.328 402.11V403.125C103.328 405.528 102.814 406.73 101.788 406.73C101.064 406.73 100.703 405.342 100.703 402.565V399.835L100.598 398.855L100.843 397.735L100.598 394.375V394.235C100.598 393.605 100.924 393.173 101.578 392.94C102.488 391.12 103.549 390.21 104.763 390.21ZM103.013 397.875C103.689 397.875 104.448 396.662 105.288 394.235V392.73L104.868 392.275H104.553C103.526 392.975 103.013 394.842 103.013 397.875ZM127.764 386.115C128.324 386.115 128.686 386.99 128.849 388.74L128.989 390.63C128.989 392.053 128.732 395.763 128.219 401.76H128.429V401.865L128.569 401.76H128.849L132.944 402.075H133.224L134.974 401.55H135.219C135.592 401.783 135.849 402.11 135.989 402.53C135.989 403.417 134.997 403.965 133.014 404.175L129.444 403.825H128.779L127.099 404.28C126.469 404.047 126.154 403.673 126.154 403.16L126.889 391.155V390.63L126.679 387.13C126.679 386.547 127.041 386.208 127.764 386.115ZM137.579 385.765C138.466 385.952 138.909 386.348 138.909 386.955C138.676 387.608 138.302 387.935 137.789 387.935C136.926 387.772 136.494 387.34 136.494 386.64C136.727 386.057 137.089 385.765 137.579 385.765ZM138.909 390.665C139.282 390.665 139.597 391.003 139.854 391.68L139.539 394.165V395.81C139.539 397.723 139.866 400.232 140.519 403.335C140.286 403.778 139.889 404 139.329 404C138.372 404 137.742 401.2 137.439 395.6V394.375C137.439 391.902 137.929 390.665 138.909 390.665ZM147.955 390.56C149.029 390.56 149.565 391.073 149.565 392.1C149.705 392.1 149.775 392.275 149.775 392.625H149.915L149.775 393.64L149.915 400.71L149.705 406.31C151.805 406.31 153.217 407.85 153.94 410.93C153.94 411.56 153.509 411.922 152.645 412.015C152.249 412.015 151.805 411.14 151.315 409.39C150.849 408.713 150.312 408.375 149.705 408.375H149.565C148.819 413.345 148.165 415.83 147.605 415.83C146.929 417.067 145.949 417.685 144.665 417.685C142.775 417.242 141.83 416.297 141.83 414.85V414.64C141.83 412.447 143.394 410.067 146.52 407.5L147.605 406.835L147.745 403.055V402.18H147.605C146.812 403.183 146.054 403.685 145.33 403.685H145.12C143.51 403.685 142.589 402.448 142.355 399.975V399.205C142.355 396.218 143.452 393.628 145.645 391.435C146.322 390.852 147.092 390.56 147.955 390.56ZM144.455 398.75V400.43C144.549 401.2 144.724 401.585 144.98 401.585H145.33C145.984 401.585 146.789 399.182 147.745 394.375V392.625C146.345 392.625 145.249 394.667 144.455 398.75ZM143.895 414.71C143.989 415.293 144.315 415.585 144.875 415.585C145.995 415.585 146.8 413.59 147.29 409.6H147.08C144.957 411.443 143.895 413.147 143.895 414.71ZM153.224 384.68C153.877 384.68 154.204 385.473 154.204 387.06L154.624 393.08H154.764L156.514 392.415C158.474 392.415 159.664 394.422 160.084 398.435C160.247 399.578 160.329 401.258 160.329 403.475V406.31C160.329 407.197 160.002 407.64 159.349 407.64H159.209C158.579 407.547 158.264 407.208 158.264 406.625V403.335C158.264 398.062 157.751 395.145 156.724 394.585H156.514C155.814 394.585 155.301 395.658 154.974 397.805V399.765C154.974 403.265 154.682 405.015 154.099 405.015L153.434 405.085C152.781 405.085 152.454 404.117 152.454 402.18C152.524 400.127 152.664 398.447 152.874 397.14L152.139 385.625C152.139 385.018 152.501 384.703 153.224 384.68ZM166.104 382.755C166.757 382.895 167.084 383.222 167.084 383.735L166.874 385.275V385.73C166.874 386.757 166.99 387.842 167.224 388.985H167.294C170 388.168 171.68 387.76 172.334 387.76C173.01 387.947 173.349 388.285 173.349 388.775C173.349 389.568 172.544 389.965 170.934 389.965L167.294 391.26C167.294 394.41 167.632 398.692 168.309 404.105C168.169 404.735 167.83 405.05 167.294 405.05H167.224C166.407 405.05 165.999 404 165.999 401.9C165.695 400.337 165.439 396.942 165.229 391.715H164.599C162.405 391.575 161.309 391.062 161.309 390.175C161.309 389.918 161.554 389.603 162.044 389.23H162.394L164.004 389.65H165.124L164.809 385.275C164.809 383.595 165.24 382.755 166.104 382.755ZM174.695 387.375C175.908 387.375 176.69 389.755 177.04 394.515L177.25 395.6C178.323 393.407 179.198 392.31 179.875 392.31C179.875 392.217 180.12 392.147 180.61 392.1H180.75C182.29 392.1 183.27 393.302 183.69 395.705V395.81C183.69 397.863 182.663 400.127 180.61 402.6C179.747 403.533 178.802 404 177.775 404C176.608 403.743 176.025 403.16 176.025 402.25L174.275 389.685L173.75 388.39C173.75 387.97 174.065 387.632 174.695 387.375ZM178.335 401.585H178.44C179.653 401.095 180.715 399.427 181.625 396.58V395.25C181.415 394.527 181.147 394.165 180.82 394.165H180.54C179.513 394.772 178.778 397.245 178.335 401.585ZM186.855 393.465L187.485 393.115C188.045 393.115 188.453 393.453 188.71 394.13C188.337 395.857 188.15 397.63 188.15 399.45C188.15 400.36 188.418 401.352 188.955 402.425H189.165C189.842 402.425 190.647 399.753 191.58 394.41C191.907 394.13 192.222 393.99 192.525 393.99C193.248 393.99 193.61 395.273 193.61 397.84C193.913 400.663 194.252 402.075 194.625 402.075L195.15 401.865C195.827 402.122 196.165 402.483 196.165 402.95C195.745 403.837 195.162 404.28 194.415 404.28C193.575 404.28 192.77 403.44 192 401.76C191.067 403.72 190.122 404.7 189.165 404.7C187.742 404.7 186.75 403.218 186.19 400.255L186.085 399.135V398.785C186.085 396.918 186.342 395.145 186.855 393.465ZM198.9 384.715C199.554 384.948 199.88 385.31 199.88 385.8L200.23 399.135V403.44C200.23 404.233 199.892 404.63 199.215 404.63H198.76C198.34 404.35 198.13 404.023 198.13 403.65V399.59L197.815 385.73C197.815 385.147 198.177 384.808 198.9 384.715ZM203.03 387.375C204.243 387.375 205.025 389.755 205.375 394.515L205.585 395.6C206.658 393.407 207.533 392.31 208.21 392.31C208.21 392.217 208.455 392.147 208.945 392.1H209.085C210.625 392.1 211.605 393.302 212.025 395.705V395.81C212.025 397.863 210.998 400.127 208.945 402.6C208.082 403.533 207.137 404 206.11 404C204.943 403.743 204.36 403.16 204.36 402.25L202.61 389.685L202.085 388.39C202.085 387.97 202.4 387.632 203.03 387.375ZM206.67 401.585H206.775C207.988 401.095 209.05 399.427 209.96 396.58V395.25C209.75 394.527 209.482 394.165 209.155 394.165H208.875C207.848 394.772 207.113 397.245 206.67 401.585ZM217.885 394.375L229.19 393.885C229.727 393.885 230.053 394.258 230.17 395.005C230.17 395.728 229.085 396.09 226.915 396.09C221.665 396.347 218.585 396.475 217.675 396.475C216.158 396.288 215.4 395.857 215.4 395.18C215.4 394.713 215.715 394.34 216.345 394.06L217.675 394.375H217.885ZM242.562 393.01C244.172 394.083 244.977 395.74 244.977 397.98C244.977 401.013 243.962 403.078 241.932 404.175L240.602 404.385C239.809 404.385 238.969 404 238.082 403.23H237.837C237.114 404.163 236.437 404.63 235.807 404.63C234.151 404.63 233.194 403.067 232.937 399.94V398.05C233.101 395.087 233.719 393.605 234.792 393.605C235.376 393.605 235.714 393.967 235.807 394.69C235.271 395.623 235.002 396.93 235.002 398.61V399.275C235.096 401.375 235.317 402.425 235.667 402.425C236.017 402.425 236.379 401.818 236.752 400.605L236.682 398.19C236.682 396.58 237.067 395.775 237.837 395.775C238.724 395.775 239.167 396.65 239.167 398.4H239.307L238.957 400.605C239.354 401.772 239.902 402.355 240.602 402.355H240.812C241.839 402.355 242.504 401.258 242.807 399.065V397.105C242.807 396.358 242.364 395.437 241.477 394.34L241.337 394.025C241.337 393.535 241.746 393.197 242.562 393.01ZM248.141 384.68C248.794 384.68 249.121 385.473 249.121 387.06L249.541 393.08H249.681L251.431 392.415C253.391 392.415 254.581 394.422 255.001 398.435C255.164 399.578 255.246 401.258 255.246 403.475V406.31C255.246 407.197 254.919 407.64 254.266 407.64H254.126C253.496 407.547 253.181 407.208 253.181 406.625V403.335C253.181 398.062 252.668 395.145 251.641 394.585H251.431C250.731 394.585 250.218 395.658 249.891 397.805V399.765C249.891 403.265 249.599 405.015 249.016 405.015L248.351 405.085C247.698 405.085 247.371 404.117 247.371 402.18C247.441 400.127 247.581 398.447 247.791 397.14L247.056 385.625C247.056 385.018 247.418 384.703 248.141 384.68ZM260.041 391.435C260.974 391.458 262.549 393.092 264.766 396.335L264.836 396.93C264.836 397.583 263.237 398.085 260.041 398.435L259.936 398.54V398.68C260.426 400.78 260.939 401.83 261.476 401.83H261.896C262.642 401.83 263.774 401.025 265.291 399.415H265.501C265.967 399.415 266.329 399.753 266.586 400.43C266.586 400.99 265.606 401.958 263.646 403.335C263.132 403.638 262.514 403.86 261.791 404C259.901 404 258.582 402.227 257.836 398.68C256.762 398.517 256.226 398.073 256.226 397.35C256.226 396.837 256.622 396.498 257.416 396.335V396.475L257.766 396.335V395.46C257.766 392.777 258.524 391.435 260.041 391.435ZM260.251 393.955H259.936L259.796 395.25V396.335H259.936C261.242 396.288 261.896 396.148 261.896 395.915C261.289 395.005 260.741 394.352 260.251 393.955ZM272.551 390.21C274.021 390.21 274.896 391.237 275.176 393.29V393.605C275.176 395.868 274.009 397.945 271.676 399.835C273.029 401.165 275.397 401.83 278.781 401.83C279.294 401.993 279.551 402.355 279.551 402.915C279.551 403.545 279.142 403.86 278.326 403.86C276.039 403.86 273.636 403.277 271.116 402.11V403.125C271.116 405.528 270.602 406.73 269.576 406.73C268.852 406.73 268.491 405.342 268.491 402.565V399.835L268.386 398.855L268.631 397.735L268.386 394.375V394.235C268.386 393.605 268.712 393.173 269.366 392.94C270.276 391.12 271.337 390.21 272.551 390.21ZM270.801 397.875C271.477 397.875 272.236 396.662 273.076 394.235V392.73L272.656 392.275H272.341C271.314 392.975 270.801 394.842 270.801 397.875ZM283.864 391.435C284.797 391.458 286.372 393.092 288.589 396.335L288.659 396.93C288.659 397.583 287.06 398.085 283.864 398.435L283.759 398.54V398.68C284.249 400.78 284.762 401.83 285.299 401.83H285.719C286.465 401.83 287.597 401.025 289.114 399.415H289.324C289.79 399.415 290.152 399.753 290.409 400.43C290.409 400.99 289.429 401.958 287.469 403.335C286.955 403.638 286.337 403.86 285.614 404C283.724 404 282.405 402.227 281.659 398.68C280.585 398.517 280.049 398.073 280.049 397.35C280.049 396.837 280.445 396.498 281.239 396.335V396.475L281.589 396.335V395.46C281.589 392.777 282.347 391.435 283.864 391.435ZM284.074 393.955H283.759L283.619 395.25V396.335H283.759C285.065 396.288 285.719 396.148 285.719 395.915C285.112 395.005 284.564 394.352 284.074 393.955ZM306.067 393.5C306.884 393.5 307.444 395.297 307.747 398.89C308.144 400.547 308.436 401.375 308.622 401.375H308.832C309.416 399.905 309.707 398.447 309.707 397L309.497 394.585C309.754 393.955 310.116 393.64 310.582 393.64C311.446 393.64 311.877 395.168 311.877 398.225C312.391 401.398 312.647 404.35 312.647 407.08V408.725C312.647 413.742 311.224 417.125 308.377 418.875L307.607 419.015C306.277 419.015 305.041 417.778 303.897 415.305L303.582 413.205V413.1C303.582 411.56 304.014 410.79 304.877 410.79L305.752 411.35L305.647 413.555C305.647 414.628 306.196 415.713 307.292 416.81H307.747C309.031 416.81 309.976 414.36 310.582 409.46L310.652 407.43C310.629 405.073 310.536 403.568 310.372 402.915C309.439 403.732 308.704 404.14 308.167 404.14C306.977 404.14 305.916 400.955 304.982 394.585L304.877 394.515C304.877 393.978 305.274 393.64 306.067 393.5ZM319.81 390.805C321.537 390.805 322.843 392.088 323.73 394.655L323.87 395.39C323.87 397.887 322.703 400.442 320.37 403.055C319.437 403.918 318.492 404.35 317.535 404.35C316.135 404.35 315.143 403.545 314.56 401.935C314.35 401.188 314.245 400.535 314.245 399.975V399.555C314.245 395.868 315.587 393.068 318.27 391.155C318.737 390.922 319.25 390.805 319.81 390.805ZM316.31 399.905C316.31 401.492 316.718 402.285 317.535 402.285C319.238 402.285 320.65 400.103 321.77 395.74V395.075C321.373 393.628 320.638 392.905 319.565 392.905C319.145 392.905 318.935 393.197 318.935 393.78C318.935 394.177 318.468 394.492 317.535 394.725C316.718 396.102 316.31 397.828 316.31 399.905ZM326.821 393.465L327.451 393.115C328.011 393.115 328.419 393.453 328.676 394.13C328.303 395.857 328.116 397.63 328.116 399.45C328.116 400.36 328.384 401.352 328.921 402.425H329.131C329.808 402.425 330.613 399.753 331.546 394.41C331.873 394.13 332.188 393.99 332.491 393.99C333.214 393.99 333.576 395.273 333.576 397.84C333.879 400.663 334.218 402.075 334.591 402.075L335.116 401.865C335.793 402.122 336.131 402.483 336.131 402.95C335.711 403.837 335.128 404.28 334.381 404.28C333.541 404.28 332.736 403.44 331.966 401.76C331.033 403.72 330.088 404.7 329.131 404.7C327.708 404.7 326.716 403.218 326.156 400.255L326.051 399.135V398.785C326.051 396.918 326.308 395.145 326.821 393.465ZM341.491 390.21C342.961 390.21 343.836 391.237 344.116 393.29V393.605C344.116 395.868 342.949 397.945 340.616 399.835C341.969 401.165 344.338 401.83 347.721 401.83C348.234 401.993 348.491 402.355 348.491 402.915C348.491 403.545 348.083 403.86 347.266 403.86C344.979 403.86 342.576 403.277 340.056 402.11V403.125C340.056 405.528 339.543 406.73 338.516 406.73C337.793 406.73 337.431 405.342 337.431 402.565V399.835L337.326 398.855L337.571 397.735L337.326 394.375V394.235C337.326 393.605 337.653 393.173 338.306 392.94C339.216 391.12 340.278 390.21 341.491 390.21ZM339.741 397.875C340.418 397.875 341.176 396.662 342.016 394.235V392.73L341.596 392.275H341.281C340.254 392.975 339.741 394.842 339.741 397.875ZM363.128 387.375C364.341 387.375 365.123 389.755 365.473 394.515L365.683 395.6C366.756 393.407 367.631 392.31 368.308 392.31C368.308 392.217 368.553 392.147 369.043 392.1H369.183C370.723 392.1 371.703 393.302 372.123 395.705V395.81C372.123 397.863 371.096 400.127 369.043 402.6C368.179 403.533 367.234 404 366.208 404C365.041 403.743 364.458 403.16 364.458 402.25L362.708 389.685L362.183 388.39C362.183 387.97 362.498 387.632 363.128 387.375ZM366.768 401.585H366.873C368.086 401.095 369.148 399.427 370.058 396.58V395.25C369.848 394.527 369.579 394.165 369.253 394.165H368.973C367.946 394.772 367.211 397.245 366.768 401.585ZM378.508 390.21C379.978 390.21 380.853 391.237 381.133 393.29V393.605C381.133 395.868 379.966 397.945 377.633 399.835C378.986 401.165 381.354 401.83 384.738 401.83C385.251 401.993 385.508 402.355 385.508 402.915C385.508 403.545 385.099 403.86 384.283 403.86C381.996 403.86 379.593 403.277 377.073 402.11V403.125C377.073 405.528 376.559 406.73 375.533 406.73C374.809 406.73 374.448 405.342 374.448 402.565V399.835L374.343 398.855L374.588 397.735L374.343 394.375V394.235C374.343 393.605 374.669 393.173 375.323 392.94C376.233 391.12 377.294 390.21 378.508 390.21ZM376.758 397.875C377.434 397.875 378.193 396.662 379.033 394.235V392.73L378.613 392.275H378.298C377.271 392.975 376.758 394.842 376.758 397.875ZM387.091 385.765C387.978 385.952 388.421 386.348 388.421 386.955C388.188 387.608 387.814 387.935 387.301 387.935C386.438 387.772 386.006 387.34 386.006 386.64C386.239 386.057 386.601 385.765 387.091 385.765ZM388.421 390.665C388.794 390.665 389.109 391.003 389.366 391.68L389.051 394.165V395.81C389.051 397.723 389.378 400.232 390.031 403.335C389.798 403.778 389.401 404 388.841 404C387.884 404 387.254 401.2 386.951 395.6V394.375C386.951 391.902 387.441 390.665 388.421 390.665ZM397.467 390.56C398.54 390.56 399.077 391.073 399.077 392.1C399.217 392.1 399.287 392.275 399.287 392.625H399.427L399.287 393.64L399.427 400.71L399.217 406.31C401.317 406.31 402.729 407.85 403.452 410.93C403.452 411.56 403.02 411.922 402.157 412.015C401.76 412.015 401.317 411.14 400.827 409.39C400.36 408.713 399.824 408.375 399.217 408.375H399.077C398.33 413.345 397.677 415.83 397.117 415.83C396.44 417.067 395.46 417.685 394.177 417.685C392.287 417.242 391.342 416.297 391.342 414.85V414.64C391.342 412.447 392.905 410.067 396.032 407.5L397.117 406.835L397.257 403.055V402.18H397.117C396.324 403.183 395.565 403.685 394.842 403.685H394.632C393.022 403.685 392.1 402.448 391.867 399.975V399.205C391.867 396.218 392.964 393.628 395.157 391.435C395.834 390.852 396.604 390.56 397.467 390.56ZM393.967 398.75V400.43C394.06 401.2 394.235 401.585 394.492 401.585H394.842C395.495 401.585 396.3 399.182 397.257 394.375V392.625C395.857 392.625 394.76 394.667 393.967 398.75ZM393.407 414.71C393.5 415.293 393.827 415.585 394.387 415.585C395.507 415.585 396.312 413.59 396.802 409.6H396.592C394.469 411.443 393.407 413.147 393.407 414.71ZM402.736 384.68C403.389 384.68 403.716 385.473 403.716 387.06L404.136 393.08H404.276L406.026 392.415C407.986 392.415 409.176 394.422 409.596 398.435C409.759 399.578 409.841 401.258 409.841 403.475V406.31C409.841 407.197 409.514 407.64 408.861 407.64H408.721C408.091 407.547 407.776 407.208 407.776 406.625V403.335C407.776 398.062 407.262 395.145 406.236 394.585H406.026C405.326 394.585 404.812 395.658 404.486 397.805V399.765C404.486 403.265 404.194 405.015 403.611 405.015L402.946 405.085C402.292 405.085 401.966 404.117 401.966 402.18C402.036 400.127 402.176 398.447 402.386 397.14L401.651 385.625C401.651 385.018 402.012 384.703 402.736 384.68ZM415.615 382.755C416.269 382.895 416.595 383.222 416.595 383.735L416.385 385.275V385.73C416.385 386.757 416.502 387.842 416.735 388.985H416.805C419.512 388.168 421.192 387.76 421.845 387.76C422.522 387.947 422.86 388.285 422.86 388.775C422.86 389.568 422.055 389.965 420.445 389.965L416.805 391.26C416.805 394.41 417.144 398.692 417.82 404.105C417.68 404.735 417.342 405.05 416.805 405.05H416.735C415.919 405.05 415.51 404 415.51 401.9C415.207 400.337 414.95 396.942 414.74 391.715H414.11C411.917 391.575 410.82 391.062 410.82 390.175C410.82 389.918 411.065 389.603 411.555 389.23H411.905L413.515 389.65H414.635L414.32 385.275C414.32 383.595 414.752 382.755 415.615 382.755ZM427.077 391.435C428.01 391.458 429.585 393.092 431.802 396.335L431.872 396.93C431.872 397.583 430.273 398.085 427.077 398.435L426.972 398.54V398.68C427.462 400.78 427.975 401.83 428.512 401.83H428.932C429.678 401.83 430.81 401.025 432.327 399.415H432.537C433.003 399.415 433.365 399.753 433.622 400.43C433.622 400.99 432.642 401.958 430.682 403.335C430.168 403.638 429.55 403.86 428.827 404C426.937 404 425.618 402.227 424.872 398.68C423.798 398.517 423.262 398.073 423.262 397.35C423.262 396.837 423.658 396.498 424.452 396.335V396.475L424.802 396.335V395.46C424.802 392.777 425.56 391.435 427.077 391.435ZM427.287 393.955H426.972L426.832 395.25V396.335H426.972C428.278 396.288 428.932 396.148 428.932 395.915C428.325 395.005 427.777 394.352 427.287 393.955ZM442.002 389.825C442.632 389.825 443.063 390.887 443.297 393.01C443.063 393.593 442.678 393.885 442.142 393.885C441.768 393.815 441.395 393.383 441.022 392.59L440.392 392.38C439.295 392.38 438.303 393.103 437.417 394.55V394.865C437.417 395.215 439.062 395.798 442.352 396.615C443.728 397.432 444.417 398.423 444.417 399.59C444.417 401.503 442.877 403.137 439.797 404.49L438.502 404.7C436.542 404.49 435.562 403.51 435.562 401.76V401.655C435.562 401.095 435.923 400.768 436.647 400.675C437.207 400.675 437.58 401.258 437.767 402.425L438.047 402.635H438.642C439.972 402.635 441.208 401.725 442.352 399.905V399.45C442.352 398.75 440.823 398.097 437.767 397.49C436.157 396.837 435.352 395.927 435.352 394.76C435.352 393.243 436.623 391.82 439.167 390.49C440.287 390.35 441.232 390.128 442.002 389.825ZM449.829 382.755C450.483 382.895 450.809 383.222 450.809 383.735L450.599 385.275V385.73C450.599 386.757 450.716 387.842 450.949 388.985H451.019C453.726 388.168 455.406 387.76 456.059 387.76C456.736 387.947 457.074 388.285 457.074 388.775C457.074 389.568 456.269 389.965 454.659 389.965L451.019 391.26C451.019 394.41 451.358 398.692 452.034 404.105C451.894 404.735 451.556 405.05 451.019 405.05H450.949C450.133 405.05 449.724 404 449.724 401.9C449.421 400.337 449.164 396.942 448.954 391.715H448.324C446.131 391.575 445.034 391.062 445.034 390.175C445.034 389.918 445.279 389.603 445.769 389.23H446.119L447.729 389.65H448.849L448.534 385.275C448.534 383.595 448.966 382.755 449.829 382.755ZM26.085 437.765C26.9717 437.952 27.415 438.348 27.415 438.955C27.1817 439.608 26.8083 439.935 26.295 439.935C25.4317 439.772 25 439.34 25 438.64C25.2333 438.057 25.595 437.765 26.085 437.765ZM27.415 442.665C27.7883 442.665 28.1033 443.003 28.36 443.68L28.045 446.165V447.81C28.045 449.723 28.3717 452.232 29.025 455.335C28.7917 455.778 28.395 456 27.835 456C26.8783 456 26.2483 453.2 25.945 447.6V446.375C25.945 443.902 26.435 442.665 27.415 442.665ZM39.0511 436.785C39.4478 436.785 39.8095 437.158 40.1361 437.905L38.5961 447.635V450.365C38.5961 453.212 39.0395 454.635 39.9261 454.635C40.5095 454.915 40.8011 455.288 40.8011 455.755C40.8011 456.292 40.3345 456.607 39.4011 456.7C38.3745 456.7 37.5695 455.755 36.9861 453.865H36.6361C35.7728 455.755 34.7228 456.7 33.4861 456.7C32.0395 456.7 31.1645 455.603 30.8611 453.41C30.8611 450.867 32.5645 448.172 35.9711 445.325C36.6478 445.325 36.9861 444.38 36.9861 442.49C37.4995 438.687 38.1878 436.785 39.0511 436.785ZM32.9261 453.13V454.075L33.4861 454.635H33.6961C34.4428 454.635 35.3178 452.383 36.3211 447.88H36.1111C33.9878 450.003 32.9261 451.753 32.9261 453.13ZM45.1871 443.435C46.1204 443.458 47.6954 445.092 49.9121 448.335L49.9821 448.93C49.9821 449.583 48.3837 450.085 45.1871 450.435L45.0821 450.54V450.68C45.5721 452.78 46.0854 453.83 46.6221 453.83H47.0421C47.7887 453.83 48.9204 453.025 50.4371 451.415H50.6471C51.1137 451.415 51.4754 451.753 51.7321 452.43C51.7321 452.99 50.7521 453.958 48.7921 455.335C48.2787 455.638 47.6604 455.86 46.9371 456C45.0471 456 43.7287 454.227 42.9821 450.68C41.9087 450.517 41.3721 450.073 41.3721 449.35C41.3721 448.837 41.7687 448.498 42.5621 448.335V448.475L42.9121 448.335V447.46C42.9121 444.777 43.6704 443.435 45.1871 443.435ZM45.3971 445.955H45.0821L44.9421 447.25V448.335H45.0821C46.3887 448.288 47.0421 448.148 47.0421 447.915C46.4354 447.005 45.8871 446.352 45.3971 445.955ZM59.6221 442.49C60.6488 442.49 61.1621 442.898 61.1621 443.715L60.8471 444.38L60.6371 450.785C60.6371 453.678 61.2204 455.475 62.3871 456.175L62.4571 456.7C62.3871 457.377 62.0721 457.715 61.5121 457.715H61.3021C59.5521 456.525 58.6771 454.705 58.6771 452.255H58.4321C57.4988 454.868 56.3671 456.175 55.0371 456.175C53.8004 455.825 53.1821 454.903 53.1821 453.41C53.1821 450.12 54.5004 446.842 57.1371 443.575C58.0238 442.852 58.8521 442.49 59.6221 442.49ZM55.3871 452.01L55.2471 452.99V453.655H55.5971C57.3471 449.292 58.2221 446.632 58.2221 445.675H58.0821C56.7288 447.192 55.8304 449.303 55.3871 452.01ZM70.3318 441.825C70.9618 441.825 71.3935 442.887 71.6268 445.01C71.3935 445.593 71.0085 445.885 70.4718 445.885C70.0985 445.815 69.7252 445.383 69.3518 444.59L68.7218 444.38C67.6252 444.38 66.6335 445.103 65.7468 446.55V446.865C65.7468 447.215 67.3918 447.798 70.6818 448.615C72.0585 449.432 72.7468 450.423 72.7468 451.59C72.7468 453.503 71.2068 455.137 68.1268 456.49L66.8318 456.7C64.8718 456.49 63.8918 455.51 63.8918 453.76V453.655C63.8918 453.095 64.2535 452.768 64.9768 452.675C65.5368 452.675 65.9102 453.258 66.0968 454.425L66.3768 454.635H66.9718C68.3018 454.635 69.5385 453.725 70.6818 451.905V451.45C70.6818 450.75 69.1535 450.097 66.0968 449.49C64.4868 448.837 63.6818 447.927 63.6818 446.76C63.6818 445.243 64.9535 443.82 67.4968 442.49C68.6168 442.35 69.5618 442.128 70.3318 441.825ZM93.7676 442.49C94.7943 442.49 95.3076 442.898 95.3076 443.715L94.9926 444.38L94.7826 450.785C94.7826 453.678 95.366 455.475 96.5326 456.175L96.6026 456.7C96.5326 457.377 96.2176 457.715 95.6576 457.715H95.4476C93.6976 456.525 92.8226 454.705 92.8226 452.255H92.5776C91.6443 454.868 90.5126 456.175 89.1826 456.175C87.946 455.825 87.3276 454.903 87.3276 453.41C87.3276 450.12 88.646 446.842 91.2826 443.575C92.1693 442.852 92.9976 442.49 93.7676 442.49ZM89.5326 452.01L89.3926 452.99V453.655H89.7426C91.4926 449.292 92.3676 446.632 92.3676 445.675H92.2276C90.8743 447.192 89.976 449.303 89.5326 452.01ZM102.062 442.21C103.532 442.21 104.407 443.237 104.687 445.29V445.605C104.687 447.868 103.521 449.945 101.187 451.835C102.541 453.165 104.909 453.83 108.292 453.83C108.806 453.993 109.062 454.355 109.062 454.915C109.062 455.545 108.654 455.86 107.837 455.86C105.551 455.86 103.147 455.277 100.627 454.11V455.125C100.627 457.528 100.114 458.73 99.0873 458.73C98.364 458.73 98.0023 457.342 98.0023 454.565V451.835L97.8973 450.855L98.1423 449.735L97.8973 446.375V446.235C97.8973 445.605 98.224 445.173 98.8773 444.94C99.7873 443.12 100.849 442.21 102.062 442.21ZM100.312 449.875C100.989 449.875 101.747 448.662 102.587 446.235V444.73L102.167 444.275H101.852C100.826 444.975 100.312 446.842 100.312 449.875ZM113.376 443.435C114.309 443.458 115.884 445.092 118.101 448.335L118.171 448.93C118.171 449.583 116.572 450.085 113.376 450.435L113.271 450.54V450.68C113.761 452.78 114.274 453.83 114.811 453.83H115.231C115.977 453.83 117.109 453.025 118.626 451.415H118.836C119.302 451.415 119.664 451.753 119.921 452.43C119.921 452.99 118.941 453.958 116.981 455.335C116.467 455.638 115.849 455.86 115.126 456C113.236 456 111.917 454.227 111.171 450.68C110.097 450.517 109.561 450.073 109.561 449.35C109.561 448.837 109.957 448.498 110.751 448.335V448.475L111.101 448.335V447.46C111.101 444.777 111.859 443.435 113.376 443.435ZM113.586 445.955H113.271L113.131 447.25V448.335H113.271C114.577 448.288 115.231 448.148 115.231 447.915C114.624 447.005 114.076 446.352 113.586 445.955ZM138.764 445.605C141.237 445.605 142.696 447.157 143.139 450.26C143.139 453.013 141.856 454.985 139.289 456.175C139.009 456.315 138.624 456.385 138.134 456.385H137.889L137.119 456.315V456.385L137.259 465.73C137.096 466.453 136.722 466.815 136.139 466.815C135.486 466.605 135.159 466.267 135.159 465.8L134.844 446.76C134.844 446.153 135.206 445.838 135.929 445.815L136.664 446.13C137.317 445.78 138.017 445.605 138.764 445.605ZM137.014 449.315L136.909 450.4L137.014 454.11L137.994 454.355C139.557 454.355 140.572 453.212 141.039 450.925V450.4C140.876 448.557 140.222 447.635 139.079 447.635H138.554C137.527 447.635 137.014 448.195 137.014 449.315ZM149.401 442.21C150.871 442.21 151.746 443.237 152.026 445.29V445.605C152.026 447.868 150.86 449.945 148.526 451.835C149.88 453.165 152.248 453.83 155.631 453.83C156.145 453.993 156.401 454.355 156.401 454.915C156.401 455.545 155.993 455.86 155.176 455.86C152.89 455.86 150.486 455.277 147.966 454.11V455.125C147.966 457.528 147.453 458.73 146.426 458.73C145.703 458.73 145.341 457.342 145.341 454.565V451.835L145.236 450.855L145.481 449.735L145.236 446.375V446.235C145.236 445.605 145.563 445.173 146.216 444.94C147.126 443.12 148.188 442.21 149.401 442.21ZM147.651 449.875C148.328 449.875 149.086 448.662 149.926 446.235V444.73L149.506 444.275H149.191C148.165 444.975 147.651 446.842 147.651 449.875ZM163.164 442.805C164.891 442.805 166.198 444.088 167.084 446.655L167.224 447.39C167.224 449.887 166.058 452.442 163.724 455.055C162.791 455.918 161.846 456.35 160.889 456.35C159.489 456.35 158.498 455.545 157.914 453.935C157.704 453.188 157.599 452.535 157.599 451.975V451.555C157.599 447.868 158.941 445.068 161.624 443.155C162.091 442.922 162.604 442.805 163.164 442.805ZM159.664 451.905C159.664 453.492 160.073 454.285 160.889 454.285C162.593 454.285 164.004 452.103 165.124 447.74V447.075C164.728 445.628 163.993 444.905 162.919 444.905C162.499 444.905 162.289 445.197 162.289 445.78C162.289 446.177 161.823 446.492 160.889 446.725C160.073 448.102 159.664 449.828 159.664 451.905ZM172.905 434.755C173.559 434.895 173.885 435.222 173.885 435.735L173.675 437.275V437.73C173.675 438.757 173.792 439.842 174.025 440.985H174.095C176.802 440.168 178.482 439.76 179.135 439.76C179.812 439.947 180.15 440.285 180.15 440.775C180.15 441.568 179.345 441.965 177.735 441.965L174.095 443.26C174.095 446.41 174.434 450.692 175.11 456.105C174.97 456.735 174.632 457.05 174.095 457.05H174.025C173.209 457.05 172.8 456 172.8 453.9C172.497 452.337 172.24 448.942 172.03 443.715H171.4C169.207 443.575 168.11 443.062 168.11 442.175C168.11 441.918 168.355 441.603 168.845 441.23H169.195L170.805 441.65H171.925L171.61 437.275C171.61 435.595 172.042 434.755 172.905 434.755ZM184.367 443.435C185.3 443.458 186.875 445.092 189.092 448.335L189.162 448.93C189.162 449.583 187.563 450.085 184.367 450.435L184.262 450.54V450.68C184.752 452.78 185.265 453.83 185.802 453.83H186.222C186.968 453.83 188.1 453.025 189.617 451.415H189.827C190.293 451.415 190.655 451.753 190.912 452.43C190.912 452.99 189.932 453.958 187.972 455.335C187.458 455.638 186.84 455.86 186.117 456C184.227 456 182.908 454.227 182.162 450.68C181.088 450.517 180.552 450.073 180.552 449.35C180.552 448.837 180.948 448.498 181.742 448.335V448.475L182.092 448.335V447.46C182.092 444.777 182.85 443.435 184.367 443.435ZM184.577 445.955H184.262L184.122 447.25V448.335H184.262C185.568 448.288 186.222 448.148 186.222 447.915C185.615 447.005 185.067 446.352 184.577 445.955ZM195.827 444.135L197.262 443.925C197.845 443.925 198.172 444.287 198.242 445.01C198.242 445.64 197.483 446.048 195.967 446.235C195.01 446.982 194.532 447.938 194.532 449.105V450.26C194.998 452.827 195.792 454.11 196.912 454.11H197.262C197.915 454.11 198.895 453.492 200.202 452.255H200.412C200.878 452.255 201.252 452.582 201.532 453.235C201.205 454.238 200.155 455.148 198.382 455.965C198.055 456.105 197.647 456.175 197.157 456.175C194.753 456.175 193.19 454.285 192.467 450.505V449.735C192.467 447.005 193.587 445.138 195.827 444.135ZM207.427 434.755C208.08 434.895 208.407 435.222 208.407 435.735L208.197 437.275V437.73C208.197 438.757 208.314 439.842 208.547 440.985H208.617C211.324 440.168 213.004 439.76 213.657 439.76C214.334 439.947 214.672 440.285 214.672 440.775C214.672 441.568 213.867 441.965 212.257 441.965L208.617 443.26C208.617 446.41 208.955 450.692 209.632 456.105C209.492 456.735 209.154 457.05 208.617 457.05H208.547C207.73 457.05 207.322 456 207.322 453.9C207.019 452.337 206.762 448.942 206.552 443.715H205.922C203.729 443.575 202.632 443.062 202.632 442.175C202.632 441.918 202.877 441.603 203.367 441.23H203.717L205.327 441.65H206.447L206.132 437.275C206.132 435.595 206.564 434.755 207.427 434.755ZM218.888 443.435C219.822 443.458 221.397 445.092 223.613 448.335L223.683 448.93C223.683 449.583 222.085 450.085 218.888 450.435L218.783 450.54V450.68C219.273 452.78 219.787 453.83 220.323 453.83H220.743C221.49 453.83 222.622 453.025 224.138 451.415H224.348C224.815 451.415 225.177 451.753 225.433 452.43C225.433 452.99 224.453 453.958 222.493 455.335C221.98 455.638 221.362 455.86 220.638 456C218.748 456 217.43 454.227 216.683 450.68C215.61 450.517 215.073 450.073 215.073 449.35C215.073 448.837 215.47 448.498 216.263 448.335V448.475L216.613 448.335V447.46C216.613 444.777 217.372 443.435 218.888 443.435ZM219.098 445.955H218.783L218.643 447.25V448.335H218.783C220.09 448.288 220.743 448.148 220.743 447.915C220.137 447.005 219.588 446.352 219.098 445.955ZM235.003 436.785C235.4 436.785 235.762 437.158 236.088 437.905L234.548 447.635V450.365C234.548 453.212 234.992 454.635 235.878 454.635C236.462 454.915 236.753 455.288 236.753 455.755C236.753 456.292 236.287 456.607 235.353 456.7C234.327 456.7 233.522 455.755 232.938 453.865H232.588C231.725 455.755 230.675 456.7 229.438 456.7C227.992 456.7 227.117 455.603 226.813 453.41C226.813 450.867 228.517 448.172 231.923 445.325C232.6 445.325 232.938 444.38 232.938 442.49C233.452 438.687 234.14 436.785 235.003 436.785ZM228.878 453.13V454.075L229.438 454.635H229.648C230.395 454.635 231.27 452.383 232.273 447.88H232.063C229.94 450.003 228.878 451.753 228.878 453.13ZM242.049 449.63C243.263 450.167 243.986 451.812 244.219 454.565C244.219 457.108 243.228 459.442 241.244 461.565L240.824 461.775C240.101 461.542 239.739 461.18 239.739 460.69L241.174 458.38C241.758 457.19 242.049 455.988 242.049 454.775V453.48C242.049 452.897 241.688 452.022 240.964 450.855V450.715C241.128 449.992 241.489 449.63 242.049 449.63ZM266.797 441.825C267.427 441.825 267.858 442.887 268.092 445.01C267.858 445.593 267.473 445.885 266.937 445.885C266.563 445.815 266.19 445.383 265.817 444.59L265.187 444.38C264.09 444.38 263.098 445.103 262.212 446.55V446.865C262.212 447.215 263.857 447.798 267.147 448.615C268.523 449.432 269.212 450.423 269.212 451.59C269.212 453.503 267.672 455.137 264.592 456.49L263.297 456.7C261.337 456.49 260.357 455.51 260.357 453.76V453.655C260.357 453.095 260.718 452.768 261.442 452.675C262.002 452.675 262.375 453.258 262.562 454.425L262.842 454.635H263.437C264.767 454.635 266.003 453.725 267.147 451.905V451.45C267.147 450.75 265.618 450.097 262.562 449.49C260.952 448.837 260.147 447.927 260.147 446.76C260.147 445.243 261.418 443.82 263.962 442.49C265.082 442.35 266.027 442.128 266.797 441.825ZM271.964 436.68C272.617 436.68 272.944 437.473 272.944 439.06L273.364 445.08H273.504L275.254 444.415C277.214 444.415 278.404 446.422 278.824 450.435C278.987 451.578 279.069 453.258 279.069 455.475V458.31C279.069 459.197 278.742 459.64 278.089 459.64H277.949C277.319 459.547 277.004 459.208 277.004 458.625V455.335C277.004 450.062 276.491 447.145 275.464 446.585H275.254C274.554 446.585 274.041 447.658 273.714 449.805V451.765C273.714 455.265 273.422 457.015 272.839 457.015L272.174 457.085C271.521 457.085 271.194 456.117 271.194 454.18C271.264 452.127 271.404 450.447 271.614 449.14L270.879 437.625C270.879 437.018 271.241 436.703 271.964 436.68ZM287.259 442.49C288.285 442.49 288.799 442.898 288.799 443.715L288.484 444.38L288.274 450.785C288.274 453.678 288.857 455.475 290.024 456.175L290.094 456.7C290.024 457.377 289.709 457.715 289.149 457.715H288.939C287.189 456.525 286.314 454.705 286.314 452.255H286.069C285.135 454.868 284.004 456.175 282.674 456.175C281.437 455.825 280.819 454.903 280.819 453.41C280.819 450.12 282.137 446.842 284.774 443.575C285.66 442.852 286.489 442.49 287.259 442.49ZM283.024 452.01L282.884 452.99V453.655H283.234C284.984 449.292 285.859 446.632 285.859 445.675H285.719C284.365 447.192 283.467 449.303 283.024 452.01ZM295.554 442.21C297.024 442.21 297.899 443.237 298.179 445.29V445.605C298.179 447.868 297.012 449.945 294.679 451.835C296.032 453.165 298.4 453.83 301.784 453.83C302.297 453.993 302.554 454.355 302.554 454.915C302.554 455.545 302.145 455.86 301.329 455.86C299.042 455.86 296.639 455.277 294.119 454.11V455.125C294.119 457.528 293.605 458.73 292.579 458.73C291.855 458.73 291.494 457.342 291.494 454.565V451.835L291.389 450.855L291.634 449.735L291.389 446.375V446.235C291.389 445.605 291.715 445.173 292.369 444.94C293.279 443.12 294.34 442.21 295.554 442.21ZM293.804 449.875C294.48 449.875 295.239 448.662 296.079 446.235V444.73L295.659 444.275H295.344C294.317 444.975 293.804 446.842 293.804 449.875ZM306.867 443.435C307.8 443.458 309.375 445.092 311.592 448.335L311.662 448.93C311.662 449.583 310.063 450.085 306.867 450.435L306.762 450.54V450.68C307.252 452.78 307.765 453.83 308.302 453.83H308.722C309.468 453.83 310.6 453.025 312.117 451.415H312.327C312.793 451.415 313.155 451.753 313.412 452.43C313.412 452.99 312.432 453.958 310.472 455.335C309.958 455.638 309.34 455.86 308.617 456C306.727 456 305.408 454.227 304.662 450.68C303.588 450.517 303.052 450.073 303.052 449.35C303.052 448.837 303.448 448.498 304.242 448.335V448.475L304.592 448.335V447.46C304.592 444.777 305.35 443.435 306.867 443.435ZM307.077 445.955H306.762L306.622 447.25V448.335H306.762C308.068 448.288 308.722 448.148 308.722 447.915C308.115 447.005 307.567 446.352 307.077 445.955ZM322.982 436.785C323.378 436.785 323.74 437.158 324.067 437.905L322.527 447.635V450.365C322.527 453.212 322.97 454.635 323.857 454.635C324.44 454.915 324.732 455.288 324.732 455.755C324.732 456.292 324.265 456.607 323.332 456.7C322.305 456.7 321.5 455.755 320.917 453.865H320.567C319.703 455.755 318.653 456.7 317.417 456.7C315.97 456.7 315.095 455.603 314.792 453.41C314.792 450.867 316.495 448.172 319.902 445.325C320.578 445.325 320.917 444.38 320.917 442.49C321.43 438.687 322.118 436.785 322.982 436.785ZM316.857 453.13V454.075L317.417 454.635H317.627C318.373 454.635 319.248 452.383 320.252 447.88H320.042C317.918 450.003 316.857 451.753 316.857 453.13ZM330.028 449.63C331.241 450.167 331.964 451.812 332.198 454.565C332.198 457.108 331.206 459.442 329.223 461.565L328.803 461.775C328.079 461.542 327.718 461.18 327.718 460.69L329.153 458.38C329.736 457.19 330.028 455.988 330.028 454.775V453.48C330.028 452.897 329.666 452.022 328.943 450.855V450.715C329.106 449.992 329.468 449.63 330.028 449.63ZM354.285 442.49C355.312 442.49 355.825 442.898 355.825 443.715L355.51 444.38L355.3 450.785C355.3 453.678 355.884 455.475 357.05 456.175L357.12 456.7C357.05 457.377 356.735 457.715 356.175 457.715H355.965C354.215 456.525 353.34 454.705 353.34 452.255H353.095C352.162 454.868 351.03 456.175 349.7 456.175C348.464 455.825 347.845 454.903 347.845 453.41C347.845 450.12 349.164 446.842 351.8 443.575C352.687 442.852 353.515 442.49 354.285 442.49ZM350.05 452.01L349.91 452.99V453.655H350.26C352.01 449.292 352.885 446.632 352.885 445.675H352.745C351.392 447.192 350.494 449.303 350.05 452.01ZM362.51 444.205C364.493 444.368 365.485 445.337 365.485 447.11L365.555 447.565L365.485 453.025C365.485 453.655 365.847 454.507 366.57 455.58V455.65C366.383 456.327 366.045 456.665 365.555 456.665C364.108 456.058 363.385 454.775 363.385 452.815V452.36L363.28 452.29L363.385 452.15V452.08L363.49 447.25C363.49 446.573 363.198 446.235 362.615 446.235H362.195C361.028 446.702 360.445 449.257 360.445 453.9C360.445 455.51 360.037 456.315 359.22 456.315C358.59 456.315 358.263 455.918 358.24 455.125V451.625C358.24 447.098 358.637 444.835 359.43 444.835L359.78 444.73L360.515 444.835C361.145 444.415 361.81 444.205 362.51 444.205ZM375.892 436.785C376.289 436.785 376.65 437.158 376.977 437.905L375.437 447.635V450.365C375.437 453.212 375.88 454.635 376.767 454.635C377.35 454.915 377.642 455.288 377.642 455.755C377.642 456.292 377.175 456.607 376.242 456.7C375.215 456.7 374.41 455.755 373.827 453.865H373.477C372.614 455.755 371.564 456.7 370.327 456.7C368.88 456.7 368.005 455.603 367.702 453.41C367.702 450.867 369.405 448.172 372.812 445.325C373.489 445.325 373.827 444.38 373.827 442.49C374.34 438.687 375.029 436.785 375.892 436.785ZM369.767 453.13V454.075L370.327 454.635H370.537C371.284 454.635 372.159 452.383 373.162 447.88H372.952C370.829 450.003 369.767 451.753 369.767 453.13ZM396.691 442.21C398.161 442.21 399.036 443.237 399.316 445.29V445.605C399.316 447.868 398.15 449.945 395.816 451.835C397.17 453.165 399.538 453.83 402.921 453.83C403.435 453.993 403.691 454.355 403.691 454.915C403.691 455.545 403.283 455.86 402.466 455.86C400.18 455.86 397.776 455.277 395.256 454.11V455.125C395.256 457.528 394.743 458.73 393.716 458.73C392.993 458.73 392.631 457.342 392.631 454.565V451.835L392.526 450.855L392.771 449.735L392.526 446.375V446.235C392.526 445.605 392.853 445.173 393.506 444.94C394.416 443.12 395.478 442.21 396.691 442.21ZM394.941 449.875C395.618 449.875 396.376 448.662 397.216 446.235V444.73L396.796 444.275H396.481C395.455 444.975 394.941 446.842 394.941 449.875ZM408.004 443.435C408.938 443.458 410.513 445.092 412.729 448.335L412.799 448.93C412.799 449.583 411.201 450.085 408.004 450.435L407.899 450.54V450.68C408.389 452.78 408.903 453.83 409.439 453.83H409.859C410.606 453.83 411.738 453.025 413.254 451.415H413.464C413.931 451.415 414.293 451.753 414.549 452.43C414.549 452.99 413.569 453.958 411.609 455.335C411.096 455.638 410.478 455.86 409.754 456C407.864 456 406.546 454.227 405.799 450.68C404.726 450.517 404.189 450.073 404.189 449.35C404.189 448.837 404.586 448.498 405.379 448.335V448.475L405.729 448.335V447.46C405.729 444.777 406.488 443.435 408.004 443.435ZM408.214 445.955H407.899L407.759 447.25V448.335H407.899C409.206 448.288 409.859 448.148 409.859 447.915C409.253 447.005 408.704 446.352 408.214 445.955ZM425.799 445.01C427.409 446.083 428.214 447.74 428.214 449.98C428.214 453.013 427.199 455.078 425.169 456.175L423.839 456.385C423.046 456.385 422.206 456 421.319 455.23H421.074C420.351 456.163 419.674 456.63 419.044 456.63C417.388 456.63 416.431 455.067 416.174 451.94V450.05C416.338 447.087 416.956 445.605 418.029 445.605C418.613 445.605 418.951 445.967 419.044 446.69C418.508 447.623 418.239 448.93 418.239 450.61V451.275C418.333 453.375 418.554 454.425 418.904 454.425C419.254 454.425 419.616 453.818 419.989 452.605L419.919 450.19C419.919 448.58 420.304 447.775 421.074 447.775C421.961 447.775 422.404 448.65 422.404 450.4H422.544L422.194 452.605C422.591 453.772 423.139 454.355 423.839 454.355H424.049C425.076 454.355 425.741 453.258 426.044 451.065V449.105C426.044 448.358 425.601 447.437 424.714 446.34L424.574 446.025C424.574 445.535 424.983 445.197 425.799 445.01ZM436.453 442.49C437.48 442.49 437.993 442.898 437.993 443.715L437.678 444.38L437.468 450.785C437.468 453.678 438.051 455.475 439.218 456.175L439.288 456.7C439.218 457.377 438.903 457.715 438.343 457.715H438.133C436.383 456.525 435.508 454.705 435.508 452.255H435.263C434.33 454.868 433.198 456.175 431.868 456.175C430.631 455.825 430.013 454.903 430.013 453.41C430.013 450.12 431.331 446.842 433.968 443.575C434.855 442.852 435.683 442.49 436.453 442.49ZM432.218 452.01L432.078 452.99V453.655H432.428C434.178 449.292 435.053 446.632 435.053 445.675H434.913C433.56 447.192 432.661 449.303 432.218 452.01ZM444.748 442.21C446.218 442.21 447.093 443.237 447.373 445.29V445.605C447.373 447.868 446.206 449.945 443.873 451.835C445.226 453.165 447.595 453.83 450.978 453.83C451.491 453.993 451.748 454.355 451.748 454.915C451.748 455.545 451.34 455.86 450.523 455.86C448.236 455.86 445.833 455.277 443.313 454.11V455.125C443.313 457.528 442.8 458.73 441.773 458.73C441.05 458.73 440.688 457.342 440.688 454.565V451.835L440.583 450.855L440.828 449.735L440.583 446.375V446.235C440.583 445.605 440.91 445.173 441.563 444.94C442.473 443.12 443.535 442.21 444.748 442.21ZM442.998 449.875C443.675 449.875 444.433 448.662 445.273 446.235V444.73L444.853 444.275H444.538C443.511 444.975 442.998 446.842 442.998 449.875ZM461.136 436.785C461.533 436.785 461.894 437.158 462.221 437.905L460.681 447.635V450.365C460.681 453.212 461.124 454.635 462.011 454.635C462.594 454.915 462.886 455.288 462.886 455.755C462.886 456.292 462.419 456.607 461.486 456.7C460.459 456.7 459.654 455.755 459.071 453.865H458.721C457.858 455.755 456.808 456.7 455.571 456.7C454.124 456.7 453.249 455.603 452.946 453.41C452.946 450.867 454.649 448.172 458.056 445.325C458.733 445.325 459.071 444.38 459.071 442.49C459.584 438.687 460.273 436.785 461.136 436.785ZM455.011 453.13V454.075L455.571 454.635H455.781C456.528 454.635 457.403 452.383 458.406 447.88H458.196C456.073 450.003 455.011 451.753 455.011 453.13ZM467.272 443.435C468.205 443.458 469.78 445.092 471.997 448.335L472.067 448.93C472.067 449.583 470.469 450.085 467.272 450.435L467.167 450.54V450.68C467.657 452.78 468.17 453.83 468.707 453.83H469.127C469.874 453.83 471.005 453.025 472.522 451.415H472.732C473.199 451.415 473.56 451.753 473.817 452.43C473.817 452.99 472.837 453.958 470.877 455.335C470.364 455.638 469.745 455.86 469.022 456C467.132 456 465.814 454.227 465.067 450.68C463.994 450.517 463.457 450.073 463.457 449.35C463.457 448.837 463.854 448.498 464.647 448.335V448.475L464.997 448.335V447.46C464.997 444.777 465.755 443.435 467.272 443.435ZM467.482 445.955H467.167L467.027 447.25V448.335H467.167C468.474 448.288 469.127 448.148 469.127 447.915C468.52 447.005 467.972 446.352 467.482 445.955ZM483.387 436.785C483.784 436.785 484.145 437.158 484.472 437.905L482.932 447.635V450.365C482.932 453.212 483.375 454.635 484.262 454.635C484.845 454.915 485.137 455.288 485.137 455.755C485.137 456.292 484.67 456.607 483.737 456.7C482.71 456.7 481.905 455.755 481.322 453.865H480.972C480.109 455.755 479.059 456.7 477.822 456.7C476.375 456.7 475.5 455.603 475.197 453.41C475.197 450.867 476.9 448.172 480.307 445.325C480.984 445.325 481.322 444.38 481.322 442.49C481.835 438.687 482.524 436.785 483.387 436.785ZM477.262 453.13V454.075L477.822 454.635H478.032C478.779 454.635 479.654 452.383 480.657 447.88H480.447C478.324 450.003 477.262 451.753 477.262 453.13ZM31.265 494.805C32.9917 494.805 34.2983 496.088 35.185 498.655L35.325 499.39C35.325 501.887 34.1583 504.442 31.825 507.055C30.8917 507.918 29.9467 508.35 28.99 508.35C27.59 508.35 26.5983 507.545 26.015 505.935C25.805 505.188 25.7 504.535 25.7 503.975V503.555C25.7 499.868 27.0417 497.068 29.725 495.155C30.1917 494.922 30.705 494.805 31.265 494.805ZM27.765 503.905C27.765 505.492 28.1733 506.285 28.99 506.285C30.6933 506.285 32.105 504.103 33.225 499.74V499.075C32.8283 497.628 32.0933 496.905 31.02 496.905C30.6 496.905 30.39 497.197 30.39 497.78C30.39 498.177 29.9233 498.492 28.99 498.725C28.1733 500.102 27.765 501.828 27.765 503.905ZM41.4259 496.205C43.4093 496.368 44.4009 497.337 44.4009 499.11L44.4709 499.565L44.4009 505.025C44.4009 505.655 44.7626 506.507 45.4859 507.58V507.65C45.2993 508.327 44.9609 508.665 44.4709 508.665C43.0243 508.058 42.3009 506.775 42.3009 504.815V504.36L42.1959 504.29L42.3009 504.15V504.08L42.4059 499.25C42.4059 498.573 42.1143 498.235 41.5309 498.235H41.1109C39.9443 498.702 39.3609 501.257 39.3609 505.9C39.3609 507.51 38.9526 508.315 38.1359 508.315C37.5059 508.315 37.1793 507.918 37.1559 507.125V503.625C37.1559 499.098 37.5526 496.835 38.3459 496.835L38.6959 496.73L39.4309 496.835C40.0609 496.415 40.7259 496.205 41.4259 496.205ZM66.3213 494.49C67.348 494.49 67.8613 494.898 67.8613 495.715L67.5463 496.38L67.3363 502.785C67.3363 505.678 67.9197 507.475 69.0863 508.175L69.1563 508.7C69.0863 509.377 68.7713 509.715 68.2113 509.715H68.0013C66.2513 508.525 65.3763 506.705 65.3763 504.255H65.1313C64.198 506.868 63.0663 508.175 61.7363 508.175C60.4997 507.825 59.8813 506.903 59.8813 505.41C59.8813 502.12 61.1997 498.842 63.8363 495.575C64.723 494.852 65.5513 494.49 66.3213 494.49ZM62.0863 504.01L61.9463 504.99V505.655H62.2963C64.0463 501.292 64.9213 498.632 64.9213 497.675H64.7813C63.428 499.192 62.5297 501.303 62.0863 504.01ZM90.2244 493.825C90.8544 493.825 91.2861 494.887 91.5194 497.01C91.2861 497.593 90.9011 497.885 90.3644 497.885C89.9911 497.815 89.6177 497.383 89.2444 496.59L88.6144 496.38C87.5177 496.38 86.5261 497.103 85.6394 498.55V498.865C85.6394 499.215 87.2844 499.798 90.5744 500.615C91.9511 501.432 92.6394 502.423 92.6394 503.59C92.6394 505.503 91.0994 507.137 88.0194 508.49L86.7244 508.7C84.7644 508.49 83.7844 507.51 83.7844 505.76V505.655C83.7844 505.095 84.1461 504.768 84.8694 504.675C85.4294 504.675 85.8027 505.258 85.9894 506.425L86.2694 506.635H86.8644C88.1944 506.635 89.4311 505.725 90.5744 503.905V503.45C90.5744 502.75 89.0461 502.097 85.9894 501.49C84.3794 500.837 83.5744 499.927 83.5744 498.76C83.5744 497.243 84.8461 495.82 87.3894 494.49C88.5094 494.35 89.4544 494.128 90.2244 493.825ZM97.0718 495.435C98.0052 495.458 99.5802 497.092 101.797 500.335L101.867 500.93C101.867 501.583 100.269 502.085 97.0718 502.435L96.9668 502.54V502.68C97.4568 504.78 97.9702 505.83 98.5068 505.83H98.9268C99.6735 505.83 100.805 505.025 102.322 503.415H102.532C102.999 503.415 103.36 503.753 103.617 504.43C103.617 504.99 102.637 505.958 100.677 507.335C100.164 507.638 99.5452 507.86 98.8218 508C96.9318 508 95.6135 506.227 94.8668 502.68C93.7935 502.517 93.2568 502.073 93.2568 501.35C93.2568 500.837 93.6535 500.498 94.4468 500.335V500.475L94.7968 500.335V499.46C94.7968 496.777 95.5552 495.435 97.0718 495.435ZM97.2818 497.955H96.9668L96.8268 499.25V500.335H96.9668C98.2735 500.288 98.9268 500.148 98.9268 499.915C98.3202 499.005 97.7718 498.352 97.2818 497.955ZM108.532 496.135L109.967 495.925C110.55 495.925 110.877 496.287 110.947 497.01C110.947 497.64 110.189 498.048 108.672 498.235C107.715 498.982 107.237 499.938 107.237 501.105V502.26C107.704 504.827 108.497 506.11 109.617 506.11H109.967C110.62 506.11 111.6 505.492 112.907 504.255H113.117C113.584 504.255 113.957 504.582 114.237 505.235C113.91 506.238 112.86 507.148 111.087 507.965C110.76 508.105 110.352 508.175 109.862 508.175C107.459 508.175 105.895 506.285 105.172 502.505V501.735C105.172 499.005 106.292 497.138 108.532 496.135ZM117.402 497.465L118.032 497.115C118.592 497.115 119 497.453 119.257 498.13C118.884 499.857 118.697 501.63 118.697 503.45C118.697 504.36 118.965 505.352 119.502 506.425H119.712C120.389 506.425 121.194 503.753 122.127 498.41C122.454 498.13 122.769 497.99 123.072 497.99C123.795 497.99 124.157 499.273 124.157 501.84C124.46 504.663 124.799 506.075 125.172 506.075L125.697 505.865C126.374 506.122 126.712 506.483 126.712 506.95C126.292 507.837 125.709 508.28 124.962 508.28C124.122 508.28 123.317 507.44 122.547 505.76C121.614 507.72 120.669 508.7 119.712 508.7C118.289 508.7 117.297 507.218 116.737 504.255L116.632 503.135V502.785C116.632 500.918 116.889 499.145 117.402 497.465ZM132.072 494.21C133.542 494.21 134.417 495.237 134.697 497.29V497.605C134.697 499.868 133.53 501.945 131.197 503.835C132.55 505.165 134.919 505.83 138.302 505.83C138.815 505.993 139.072 506.355 139.072 506.915C139.072 507.545 138.664 507.86 137.847 507.86C135.56 507.86 133.157 507.277 130.637 506.11V507.125C130.637 509.528 130.124 510.73 129.097 510.73C128.374 510.73 128.012 509.342 128.012 506.565V503.835L127.907 502.855L128.152 501.735L127.907 498.375V498.235C127.907 497.605 128.234 497.173 128.887 496.94C129.797 495.12 130.859 494.21 132.072 494.21ZM130.322 501.875C130.999 501.875 131.757 500.662 132.597 498.235V496.73L132.177 496.275H131.862C130.835 496.975 130.322 498.842 130.322 501.875ZM143.385 495.435C144.319 495.458 145.894 497.092 148.11 500.335L148.18 500.93C148.18 501.583 146.582 502.085 143.385 502.435L143.28 502.54V502.68C143.77 504.78 144.284 505.83 144.82 505.83H145.24C145.987 505.83 147.119 505.025 148.635 503.415H148.845C149.312 503.415 149.674 503.753 149.93 504.43C149.93 504.99 148.95 505.958 146.99 507.335C146.477 507.638 145.859 507.86 145.135 508C143.245 508 141.927 506.227 141.18 502.68C140.107 502.517 139.57 502.073 139.57 501.35C139.57 500.837 139.967 500.498 140.76 500.335V500.475L141.11 500.335V499.46C141.11 496.777 141.869 495.435 143.385 495.435ZM143.595 497.955H143.28L143.14 499.25V500.335H143.28C144.587 500.288 145.24 500.148 145.24 499.915C144.634 499.005 144.085 498.352 143.595 497.955ZM164.749 491.375C165.962 491.375 166.744 493.755 167.094 498.515L167.304 499.6C168.377 497.407 169.252 496.31 169.929 496.31C169.929 496.217 170.174 496.147 170.664 496.1H170.804C172.344 496.1 173.324 497.302 173.744 499.705V499.81C173.744 501.863 172.717 504.127 170.664 506.6C169.8 507.533 168.855 508 167.829 508C166.662 507.743 166.079 507.16 166.079 506.25L164.329 493.685L163.804 492.39C163.804 491.97 164.119 491.632 164.749 491.375ZM168.389 505.585H168.494C169.707 505.095 170.769 503.427 171.679 500.58V499.25C171.469 498.527 171.2 498.165 170.874 498.165H170.594C169.567 498.772 168.832 501.245 168.389 505.585ZM177.504 488.715C178.157 488.948 178.484 489.31 178.484 489.8L178.834 503.135V507.44C178.834 508.233 178.495 508.63 177.819 508.63H177.364C176.944 508.35 176.734 508.023 176.734 507.65V503.59L176.419 489.73C176.419 489.147 176.78 488.808 177.504 488.715ZM186.953 494.805C188.68 494.805 189.987 496.088 190.873 498.655L191.013 499.39C191.013 501.887 189.847 504.442 187.513 507.055C186.58 507.918 185.635 508.35 184.678 508.35C183.278 508.35 182.287 507.545 181.703 505.935C181.493 505.188 181.388 504.535 181.388 503.975V503.555C181.388 499.868 182.73 497.068 185.413 495.155C185.88 494.922 186.393 494.805 186.953 494.805ZM183.453 503.905C183.453 505.492 183.862 506.285 184.678 506.285C186.382 506.285 187.793 504.103 188.913 499.74V499.075C188.517 497.628 187.782 496.905 186.708 496.905C186.288 496.905 186.078 497.197 186.078 497.78C186.078 498.177 185.612 498.492 184.678 498.725C183.862 500.102 183.453 501.828 183.453 503.905ZM196.134 496.135L197.569 495.925C198.153 495.925 198.479 496.287 198.549 497.01C198.549 497.64 197.791 498.048 196.274 498.235C195.318 498.982 194.839 499.938 194.839 501.105V502.26C195.306 504.827 196.099 506.11 197.219 506.11H197.569C198.223 506.11 199.203 505.492 200.509 504.255H200.719C201.186 504.255 201.559 504.582 201.839 505.235C201.513 506.238 200.463 507.148 198.689 507.965C198.363 508.105 197.954 508.175 197.464 508.175C195.061 508.175 193.498 506.285 192.774 502.505V501.735C192.774 499.005 193.894 497.138 196.134 496.135ZM205.389 489.485H205.599C205.903 489.485 206.194 489.742 206.474 490.255L206.334 492.635V493.965L206.474 500.09L206.579 500.44H206.684C207.688 499.507 208.563 497.862 209.309 495.505L210.079 495.26C210.733 495.353 211.059 495.645 211.059 496.135C211.059 497.652 209.974 499.693 207.804 502.26V502.505C210.674 505.842 212.564 507.51 213.474 507.51H213.684L214.559 506.985H214.874C215.364 506.985 215.726 507.312 215.959 507.965C215.959 508.712 215.131 509.225 213.474 509.505C211.818 509.505 209.659 507.825 206.999 504.465H206.684L206.789 506.355V508.175C206.649 508.898 206.288 509.26 205.704 509.26C205.051 509.12 204.724 508.758 204.724 508.175V507.965L204.584 503.94C204.328 503.94 204.153 503.578 204.059 502.855L204.514 501.98L204.304 494.105V492.565C204.304 490.512 204.666 489.485 205.389 489.485ZM220.47 496.135L221.905 495.925C222.489 495.925 222.815 496.287 222.885 497.01C222.885 497.64 222.127 498.048 220.61 498.235C219.654 498.982 219.175 499.938 219.175 501.105V502.26C219.642 504.827 220.435 506.11 221.555 506.11H221.905C222.559 506.11 223.539 505.492 224.845 504.255H225.055C225.522 504.255 225.895 504.582 226.175 505.235C225.849 506.238 224.799 507.148 223.025 507.965C222.699 508.105 222.29 508.175 221.8 508.175C219.397 508.175 217.834 506.285 217.11 502.505V501.735C217.11 499.005 218.23 497.138 220.47 496.135ZM229.41 488.68C230.064 488.68 230.39 489.473 230.39 491.06L230.81 497.08H230.95L232.7 496.415C234.66 496.415 235.85 498.422 236.27 502.435C236.434 503.578 236.515 505.258 236.515 507.475V510.31C236.515 511.197 236.189 511.64 235.535 511.64H235.395C234.765 511.547 234.45 511.208 234.45 510.625V507.335C234.45 502.062 233.937 499.145 232.91 498.585H232.7C232 498.585 231.487 499.658 231.16 501.805V503.765C231.16 507.265 230.869 509.015 230.285 509.015L229.62 509.085C228.967 509.085 228.64 508.117 228.64 506.18C228.71 504.127 228.85 502.447 229.06 501.14L228.325 489.625C228.325 489.018 228.687 488.703 229.41 488.68ZM244.705 494.49C245.732 494.49 246.245 494.898 246.245 495.715L245.93 496.38L245.72 502.785C245.72 505.678 246.303 507.475 247.47 508.175L247.54 508.7C247.47 509.377 247.155 509.715 246.595 509.715H246.385C244.635 508.525 243.76 506.705 243.76 504.255H243.515C242.582 506.868 241.45 508.175 240.12 508.175C238.883 507.825 238.265 506.903 238.265 505.41C238.265 502.12 239.583 498.842 242.22 495.575C243.107 494.852 243.935 494.49 244.705 494.49ZM240.47 504.01L240.33 504.99V505.655H240.68C242.43 501.292 243.305 498.632 243.305 497.675H243.165C241.812 499.192 240.913 501.303 240.47 504.01ZM248.8 489.765C249.687 489.952 250.13 490.348 250.13 490.955C249.897 491.608 249.523 491.935 249.01 491.935C248.147 491.772 247.715 491.34 247.715 490.64C247.948 490.057 248.31 489.765 248.8 489.765ZM250.13 494.665C250.503 494.665 250.818 495.003 251.075 495.68L250.76 498.165V499.81C250.76 501.723 251.087 504.232 251.74 507.335C251.507 507.778 251.11 508 250.55 508C249.593 508 248.963 505.2 248.66 499.6V498.375C248.66 495.902 249.15 494.665 250.13 494.665ZM258.091 496.205C260.074 496.368 261.066 497.337 261.066 499.11L261.136 499.565L261.066 505.025C261.066 505.655 261.428 506.507 262.151 507.58V507.65C261.964 508.327 261.626 508.665 261.136 508.665C259.689 508.058 258.966 506.775 258.966 504.815V504.36L258.861 504.29L258.966 504.15V504.08L259.071 499.25C259.071 498.573 258.779 498.235 258.196 498.235H257.776C256.609 498.702 256.026 501.257 256.026 505.9C256.026 507.51 255.618 508.315 254.801 508.315C254.171 508.315 253.844 507.918 253.821 507.125V503.625C253.821 499.098 254.218 496.835 255.011 496.835L255.361 496.73L256.096 496.835C256.726 496.415 257.391 496.205 258.091 496.205ZM280.746 497.605C283.22 497.605 284.678 499.157 285.121 502.26C285.121 505.013 283.838 506.985 281.271 508.175C280.991 508.315 280.606 508.385 280.116 508.385H279.871L279.101 508.315V508.385L279.241 517.73C279.078 518.453 278.705 518.815 278.121 518.815C277.468 518.605 277.141 518.267 277.141 517.8L276.826 498.76C276.826 498.153 277.188 497.838 277.911 497.815L278.646 498.13C279.3 497.78 280 497.605 280.746 497.605ZM278.996 501.315L278.891 502.4L278.996 506.11L279.976 506.355C281.54 506.355 282.555 505.212 283.021 502.925V502.4C282.858 500.557 282.205 499.635 281.061 499.635H280.536C279.51 499.635 278.996 500.195 278.996 501.315ZM288.759 488.715C289.412 488.948 289.739 489.31 289.739 489.8L290.089 503.135V507.44C290.089 508.233 289.75 508.63 289.074 508.63H288.619C288.199 508.35 287.989 508.023 287.989 507.65V503.59L287.674 489.73C287.674 489.147 288.035 488.808 288.759 488.715ZM299.153 494.49C300.18 494.49 300.693 494.898 300.693 495.715L300.378 496.38L300.168 502.785C300.168 505.678 300.752 507.475 301.918 508.175L301.988 508.7C301.918 509.377 301.603 509.715 301.043 509.715H300.833C299.083 508.525 298.208 506.705 298.208 504.255H297.963C297.03 506.868 295.898 508.175 294.568 508.175C293.332 507.825 292.713 506.903 292.713 505.41C292.713 502.12 294.032 498.842 296.668 495.575C297.555 494.852 298.383 494.49 299.153 494.49ZM294.918 504.01L294.778 504.99V505.655H295.128C296.878 501.292 297.753 498.632 297.753 497.675H297.613C296.26 499.192 295.362 501.303 294.918 504.01ZM306.958 486.755C307.611 486.895 307.938 487.222 307.938 487.735L307.728 489.275V489.73C307.728 490.757 307.845 491.842 308.078 492.985H308.148C310.855 492.168 312.535 491.76 313.188 491.76C313.865 491.947 314.203 492.285 314.203 492.775C314.203 493.568 313.398 493.965 311.788 493.965L308.148 495.26C308.148 498.41 308.486 502.692 309.163 508.105C309.023 508.735 308.685 509.05 308.148 509.05H308.078C307.261 509.05 306.853 508 306.853 505.9C306.55 504.337 306.293 500.942 306.083 495.715H305.453C303.26 495.575 302.163 495.062 302.163 494.175C302.163 493.918 302.408 493.603 302.898 493.23H303.248L304.858 493.65H305.978L305.663 489.275C305.663 487.595 306.095 486.755 306.958 486.755ZM320.729 492.25C321.826 492.25 322.584 493.417 323.004 495.75V495.89C323.004 496.427 322.643 496.742 321.919 496.835C321.336 496.835 320.939 496.112 320.729 494.665L320.589 494.56H320.169C319.656 495.307 319.399 496.287 319.399 497.5L319.504 499.25C320.438 499.25 321.453 499.005 322.549 498.515C322.993 498.515 323.401 498.83 323.774 499.46C323.774 500.417 322.468 501.047 319.854 501.35L320.729 507.055C320.729 507.545 320.321 507.86 319.504 508C318.781 508 318.419 506.88 318.419 504.64L317.754 501.665L315.479 502.015C314.989 502.015 314.698 501.653 314.604 500.93C314.604 500.23 315.549 499.787 317.439 499.6L317.299 497.43C317.673 493.977 318.816 492.25 320.729 492.25ZM330.303 494.805C332.03 494.805 333.336 496.088 334.223 498.655L334.363 499.39C334.363 501.887 333.196 504.442 330.863 507.055C329.93 507.918 328.985 508.35 328.028 508.35C326.628 508.35 325.636 507.545 325.053 505.935C324.843 505.188 324.738 504.535 324.738 503.975V503.555C324.738 499.868 326.08 497.068 328.763 495.155C329.23 494.922 329.743 494.805 330.303 494.805ZM326.803 503.905C326.803 505.492 327.211 506.285 328.028 506.285C329.731 506.285 331.143 504.103 332.263 499.74V499.075C331.866 497.628 331.131 496.905 330.058 496.905C329.638 496.905 329.428 497.197 329.428 497.78C329.428 498.177 328.961 498.492 328.028 498.725C327.211 500.102 326.803 501.828 326.803 503.905ZM340.534 494.21C342.004 494.21 342.879 495.237 343.159 497.29V497.605C343.159 499.868 341.992 501.945 339.659 503.835C341.012 505.165 343.381 505.83 346.764 505.83C347.277 505.993 347.534 506.355 347.534 506.915C347.534 507.545 347.126 507.86 346.309 507.86C344.022 507.86 341.619 507.277 339.099 506.11V507.125C339.099 509.528 338.586 510.73 337.559 510.73C336.836 510.73 336.474 509.342 336.474 506.565V503.835L336.369 502.855L336.614 501.735L336.369 498.375V498.235C336.369 497.605 336.696 497.173 337.349 496.94C338.259 495.12 339.321 494.21 340.534 494.21ZM338.784 501.875C339.461 501.875 340.219 500.662 341.059 498.235V496.73L340.639 496.275H340.324C339.297 496.975 338.784 498.842 338.784 501.875ZM349.257 495.75C349.421 495.167 349.794 494.875 350.377 494.875C350.961 494.875 351.346 495.458 351.532 496.625H351.672L353.282 496.275C354.029 496.275 354.752 496.975 355.452 498.375H355.592C356.619 496.765 357.669 495.96 358.742 495.96C361.029 496.38 362.172 497.873 362.172 500.44L362.242 501.665L361.927 508.735V509.4C361.927 509.983 361.566 510.322 360.842 510.415C360.119 510.415 359.757 509.563 359.757 507.86L360.177 501.525C360.177 499.192 359.629 498.025 358.532 498.025C357.902 498.025 357.144 499.553 356.257 502.61C355.814 506.11 355.452 507.86 355.172 507.86C354.776 507.86 354.577 507.942 354.577 508.105C353.854 508.012 353.492 507.638 353.492 506.985L353.947 502.75C353.877 499.833 353.586 498.375 353.072 498.375H352.967C352.384 498.818 352.092 499.693 352.092 501V502.855L351.952 508.21C351.789 508.793 351.427 509.085 350.867 509.085C350.377 509.085 350.062 508.677 349.922 507.86L349.782 503.73L349.992 500.335C349.852 498.585 349.607 497.057 349.257 495.75ZM367.016 505.935C367.506 505.935 367.797 506.332 367.891 507.125C367.751 507.942 367.342 508.35 366.666 508.35C366.199 508.35 365.872 507.942 365.686 507.125C365.966 506.332 366.409 505.935 367.016 505.935Z" fill="black" fill-opacity="0.57"/>
</g>
<defs>
<filter id="filter0_b_61_4" x="-4" y="-4" width="497" height="566" filterUnits="userSpaceOnUse" color-interpolation-filters="sRGB">
<feFlood flood-opacity="0" result="BackgroundImageFix"/>
<feGaussianBlur in="BackgroundImageFix" stdDeviation="2"/>
<feComposite in2="SourceAlpha" operator="in" result="effect1_backgroundBlur_61_4"/>
<feBlend mode="normal" in="SourceGraphic" in2="effect1_backgroundBlur_61_4" result="shape"/>
</filter>
<linearGradient id="paint0_linear_61_4" x1="262.5" y1="26" x2="262.5" y2="339" gradientUnits="userSpaceOnUse">
<stop stop-color="#00FF0A"/>
<stop offset="0.26286" stop-color="#B8EAFF"/>
</linearGradient>
<clipPath id="clip0_61_4">
<rect width="489" height="558" fill="white"/>
</clipPath>
</defs>
</svg>
