<svg width="256" height="44" viewBox="0 0 256 44" fill="none" xmlns="http://www.w3.org/2000/svg">
<g filter="url(#filter0_b_45_385)">
<g clip-path="url(#clip0_45_385)">
<rect width="256" height="44" fill="#4CFF48" fill-opacity="0.08"/>
<path d="M0 14V-0.490566L24 -1" stroke="#00FF38" stroke-width="9"/>
<path d="M0 28V43.5H25" stroke="#00FF38" stroke-width="9"/>
<path d="M223 0H254V13.5" stroke="#02FC0C" stroke-width="9"/>
<path d="M225 44H254V28" stroke="#02FC0C" stroke-width="9"/>
<path d="M83.8945 12.6484H85.9946L91.3516 25.979L96.6973 12.6484H98.8086L92.1602 29H90.5205L83.8945 12.6484ZM83.2095 12.6484H85.0625L85.3657 22.6211V29H83.2095V12.6484ZM97.6294 12.6484H99.4824V29H97.3262V22.6211L97.6294 12.6484ZM103.728 12.6484L107.973 20.8579L112.229 12.6484H114.688L109.051 22.8906V29H106.883V22.8906L101.246 12.6484H103.728ZM124.818 12.6484V29H122.651V12.6484H124.818ZM133.185 29H129.771L129.793 27.2368H133.185C134.353 27.2368 135.326 26.9935 136.105 26.5068C136.884 26.0127 137.468 25.3239 137.857 24.4404C138.254 23.5495 138.452 22.5088 138.452 21.3184V20.3188C138.452 19.383 138.34 18.5519 138.115 17.8257C137.891 17.092 137.561 16.4743 137.127 15.9727C136.693 15.4635 136.161 15.078 135.532 14.8159C134.911 14.5539 134.196 14.4229 133.387 14.4229H129.704V12.6484H133.387C134.458 12.6484 135.435 12.8281 136.318 13.1875C137.202 13.5394 137.962 14.0522 138.598 14.7261C139.242 15.3924 139.736 16.201 140.081 17.1519C140.425 18.0952 140.597 19.1584 140.597 20.3413V21.3184C140.597 22.5013 140.425 23.5682 140.081 24.519C139.736 25.4624 139.238 26.2673 138.587 26.9336C137.943 27.5999 137.164 28.1128 136.251 28.4722C135.345 28.8241 134.323 29 133.185 29ZM130.928 12.6484V29H128.76V12.6484H130.928ZM154.242 27.2368V29H145.583V27.2368H154.242ZM146.021 12.6484V29H143.854V12.6484H146.021ZM153.097 19.6787V21.4419H145.583V19.6787H153.097ZM154.13 12.6484V14.4229H145.583V12.6484H154.13ZM162.979 14.0972L157.566 29H155.354L161.587 12.6484H163.013L162.979 14.0972ZM167.517 29L162.092 14.0972L162.059 12.6484H163.485L169.74 29H167.517ZM167.236 22.9468V24.7212H158.049V22.9468H167.236ZM180.645 24.8672C180.645 24.4854 180.585 24.1484 180.465 23.8564C180.353 23.557 180.151 23.2874 179.859 23.0479C179.574 22.8083 179.178 22.5799 178.668 22.3628C178.167 22.1457 177.53 21.9248 176.759 21.7002C175.951 21.4606 175.221 21.1948 174.569 20.9028C173.918 20.6034 173.36 20.2627 172.896 19.8809C172.432 19.499 172.076 19.061 171.829 18.5669C171.582 18.0728 171.458 17.5075 171.458 16.8711C171.458 16.2347 171.59 15.647 171.852 15.1079C172.114 14.5688 172.488 14.1009 172.975 13.7041C173.469 13.2998 174.056 12.9854 174.738 12.7607C175.419 12.5361 176.179 12.4238 177.018 12.4238C178.245 12.4238 179.286 12.6597 180.14 13.1313C181.001 13.5955 181.656 14.2057 182.105 14.9619C182.554 15.7106 182.779 16.5117 182.779 17.3652H180.623C180.623 16.7513 180.492 16.2085 180.229 15.7368C179.967 15.2576 179.571 14.8833 179.039 14.6138C178.507 14.3368 177.834 14.1982 177.018 14.1982C176.246 14.1982 175.61 14.3143 175.108 14.5464C174.607 14.7785 174.232 15.0929 173.985 15.4897C173.746 15.8866 173.626 16.3395 173.626 16.8486C173.626 17.193 173.697 17.5075 173.839 17.792C173.989 18.069 174.217 18.3273 174.524 18.5669C174.839 18.8065 175.236 19.0273 175.715 19.2295C176.201 19.4316 176.782 19.6263 177.456 19.8135C178.384 20.0755 179.185 20.3675 179.859 20.6895C180.533 21.0114 181.087 21.3745 181.521 21.7788C181.963 22.1756 182.288 22.6286 182.498 23.1377C182.715 23.6393 182.824 24.2083 182.824 24.8447C182.824 25.5111 182.689 26.1138 182.419 26.6528C182.15 27.1919 181.764 27.6523 181.263 28.0342C180.761 28.416 180.158 28.7118 179.455 28.9214C178.758 29.1235 177.98 29.2246 177.119 29.2246C176.362 29.2246 175.618 29.1198 174.884 28.9102C174.158 28.7005 173.495 28.3861 172.896 27.9668C172.305 27.5475 171.829 27.0309 171.47 26.417C171.118 25.7956 170.942 25.0768 170.942 24.2607H173.098C173.098 24.8223 173.207 25.3052 173.424 25.7095C173.641 26.1063 173.937 26.4357 174.311 26.6978C174.693 26.9598 175.123 27.1545 175.603 27.2817C176.089 27.4015 176.595 27.4614 177.119 27.4614C177.875 27.4614 178.515 27.3566 179.039 27.147C179.563 26.9373 179.96 26.6379 180.229 26.2485C180.507 25.8592 180.645 25.3988 180.645 24.8672Z" fill="white"/>
</g>
<rect x="0.5" y="0.5" width="255" height="43" stroke="#00FF38"/>
</g>
<defs>
<filter id="filter0_b_45_385" x="-62" y="-62" width="380" height="168" filterUnits="userSpaceOnUse" color-interpolation-filters="sRGB">
<feFlood flood-opacity="0" result="BackgroundImageFix"/>
<feGaussianBlur in="BackgroundImageFix" stdDeviation="31"/>
<feComposite in2="SourceAlpha" operator="in" result="effect1_backgroundBlur_45_385"/>
<feBlend mode="normal" in="SourceGraphic" in2="effect1_backgroundBlur_45_385" result="shape"/>
</filter>
<clipPath id="clip0_45_385">
<rect width="256" height="44" fill="white"/>
</clipPath>
</defs>
</svg>
