<svg width="256" height="44" viewBox="0 0 256 44" fill="none" xmlns="http://www.w3.org/2000/svg">
<g filter="url(#filter0_b_45_371)">
<g clip-path="url(#clip0_45_371)">
<rect width="256" height="44" fill="#36F317" fill-opacity="0.08"/>
<path d="M0 14V-0.490566L24 -1" stroke="#00FF38" stroke-width="9"/>
<path d="M0 28V43.5H25" stroke="#00FF38" stroke-width="9"/>
<path d="M223 0H254V13.5" stroke="#02FC0C" stroke-width="9"/>
<path d="M225 44H254V28" stroke="#02FC0C" stroke-width="9"/>
<path d="M66.813 12.6484V29H64.6343L56.4023 16.3882V29H54.2349V12.6484H56.4023L64.668 25.2939V12.6484H66.813ZM81.042 27.2368V29H72.3833V27.2368H81.042ZM72.8213 12.6484V29H70.6538V12.6484H72.8213ZM79.8965 19.6787V21.4419H72.3833V19.6787H79.8965ZM80.9297 12.6484V14.4229H72.3833V12.6484H80.9297ZM95.8101 20.8579V26.8438C95.6079 27.1432 95.286 27.4801 94.8442 27.8545C94.4025 28.2214 93.7923 28.5433 93.0137 28.8203C92.2425 29.0898 91.2467 29.2246 90.0264 29.2246C89.0306 29.2246 88.1134 29.0524 87.2749 28.708C86.4438 28.3561 85.7214 27.847 85.1074 27.1807C84.501 26.5068 84.0293 25.6908 83.6924 24.7324C83.363 23.7666 83.1982 22.6735 83.1982 21.4531V20.1841C83.1982 18.9637 83.3405 17.8743 83.625 16.916C83.917 15.9577 84.3438 15.1453 84.9053 14.479C85.4668 13.8052 86.1556 13.2961 86.9717 12.9517C87.7878 12.5998 88.7236 12.4238 89.7793 12.4238C91.0296 12.4238 92.0741 12.641 92.9126 13.0752C93.7586 13.502 94.4175 14.0934 94.8892 14.8496C95.3683 15.6058 95.6753 16.4668 95.8101 17.4326H93.6426C93.5452 16.8411 93.3506 16.3021 93.0586 15.8154C92.7741 15.3288 92.366 14.9395 91.8345 14.6475C91.3029 14.348 90.6178 14.1982 89.7793 14.1982C89.0231 14.1982 88.368 14.3368 87.814 14.6138C87.2599 14.8908 86.8032 15.2876 86.4438 15.8042C86.0845 16.3208 85.8149 16.946 85.6353 17.6797C85.4631 18.4134 85.377 19.2407 85.377 20.1616V21.4531C85.377 22.3965 85.4855 23.2388 85.7026 23.98C85.9272 24.7212 86.2454 25.3538 86.6572 25.8779C87.069 26.3945 87.5594 26.7876 88.1284 27.0571C88.7049 27.3267 89.3413 27.4614 90.0376 27.4614C90.8088 27.4614 91.4339 27.3978 91.9131 27.2705C92.3923 27.1357 92.7666 26.9785 93.0361 26.7988C93.3057 26.6117 93.5116 26.4357 93.6538 26.271V22.6099H89.8691V20.8579H95.8101ZM111.993 20.3076V21.3408C111.993 22.5687 111.84 23.6693 111.533 24.6426C111.226 25.6159 110.784 26.4432 110.208 27.1245C109.631 27.8058 108.938 28.3262 108.13 28.6855C107.329 29.0449 106.43 29.2246 105.435 29.2246C104.469 29.2246 103.582 29.0449 102.773 28.6855C101.972 28.3262 101.276 27.8058 100.684 27.1245C100.1 26.4432 99.6471 25.6159 99.3252 24.6426C99.0033 23.6693 98.8423 22.5687 98.8423 21.3408V20.3076C98.8423 19.0798 98.9995 17.9829 99.314 17.0171C99.6359 16.0438 100.089 15.2165 100.673 14.5352C101.257 13.8464 101.949 13.3223 102.75 12.9629C103.559 12.6035 104.446 12.4238 105.412 12.4238C106.408 12.4238 107.306 12.6035 108.107 12.9629C108.916 13.3223 109.609 13.8464 110.185 14.5352C110.769 15.2165 111.215 16.0438 111.521 17.0171C111.836 17.9829 111.993 19.0798 111.993 20.3076ZM109.848 21.3408V20.2852C109.848 19.3118 109.747 18.4508 109.545 17.7021C109.35 16.9535 109.062 16.3245 108.68 15.8154C108.298 15.3063 107.83 14.9207 107.276 14.6587C106.73 14.3966 106.108 14.2656 105.412 14.2656C104.738 14.2656 104.128 14.3966 103.582 14.6587C103.042 14.9207 102.578 15.3063 102.189 15.8154C101.807 16.3245 101.511 16.9535 101.302 17.7021C101.092 18.4508 100.987 19.3118 100.987 20.2852V21.3408C100.987 22.3216 101.092 23.1901 101.302 23.9463C101.511 24.695 101.811 25.3276 102.2 25.8442C102.597 26.3534 103.065 26.7389 103.604 27.001C104.151 27.263 104.761 27.394 105.435 27.394C106.138 27.394 106.764 27.263 107.31 27.001C107.857 26.7389 108.317 26.3534 108.691 25.8442C109.073 25.3276 109.361 24.695 109.556 23.9463C109.751 23.1901 109.848 22.3216 109.848 21.3408ZM120.966 12.6484V29H118.833V12.6484H120.966ZM126.222 12.6484V14.4229H113.588V12.6484H126.222ZM130.973 12.6484V29H128.805V12.6484H130.973ZM141.17 14.0972L135.757 29H133.544L139.777 12.6484H141.204L141.17 14.0972ZM145.707 29L140.283 14.0972L140.249 12.6484H141.675L147.931 29H145.707ZM145.426 22.9468V24.7212H136.24V22.9468H145.426ZM154.703 12.6484V29H152.569V12.6484H154.703ZM159.958 12.6484V14.4229H147.324V12.6484H159.958ZM164.709 12.6484V29H162.542V12.6484H164.709ZM181.24 20.3076V21.3408C181.24 22.5687 181.087 23.6693 180.78 24.6426C180.473 25.6159 180.031 26.4432 179.455 27.1245C178.878 27.8058 178.186 28.3262 177.377 28.6855C176.576 29.0449 175.677 29.2246 174.682 29.2246C173.716 29.2246 172.829 29.0449 172.02 28.6855C171.219 28.3262 170.523 27.8058 169.931 27.1245C169.347 26.4432 168.894 25.6159 168.572 24.6426C168.25 23.6693 168.089 22.5687 168.089 21.3408V20.3076C168.089 19.0798 168.247 17.9829 168.561 17.0171C168.883 16.0438 169.336 15.2165 169.92 14.5352C170.504 13.8464 171.196 13.3223 171.998 12.9629C172.806 12.6035 173.693 12.4238 174.659 12.4238C175.655 12.4238 176.553 12.6035 177.354 12.9629C178.163 13.3223 178.856 13.8464 179.432 14.5352C180.016 15.2165 180.462 16.0438 180.769 17.0171C181.083 17.9829 181.24 19.0798 181.24 20.3076ZM179.095 21.3408V20.2852C179.095 19.3118 178.994 18.4508 178.792 17.7021C178.597 16.9535 178.309 16.3245 177.927 15.8154C177.545 15.3063 177.077 14.9207 176.523 14.6587C175.977 14.3966 175.355 14.2656 174.659 14.2656C173.985 14.2656 173.375 14.3966 172.829 14.6587C172.29 14.9207 171.825 15.3063 171.436 15.8154C171.054 16.3245 170.758 16.9535 170.549 17.7021C170.339 18.4508 170.234 19.3118 170.234 20.2852V21.3408C170.234 22.3216 170.339 23.1901 170.549 23.9463C170.758 24.695 171.058 25.3276 171.447 25.8442C171.844 26.3534 172.312 26.7389 172.851 27.001C173.398 27.263 174.008 27.394 174.682 27.394C175.385 27.394 176.011 27.263 176.557 27.001C177.104 26.7389 177.564 26.3534 177.938 25.8442C178.32 25.3276 178.609 24.695 178.803 23.9463C178.998 23.1901 179.095 22.3216 179.095 21.3408ZM197.064 12.6484V29H194.885L186.653 16.3882V29H184.486V12.6484H186.653L194.919 25.2939V12.6484H197.064ZM209.62 24.8672C209.62 24.4854 209.56 24.1484 209.44 23.8564C209.328 23.557 209.125 23.2874 208.833 23.0479C208.549 22.8083 208.152 22.5799 207.643 22.3628C207.141 22.1457 206.505 21.9248 205.734 21.7002C204.925 21.4606 204.195 21.1948 203.544 20.9028C202.893 20.6034 202.335 20.2627 201.871 19.8809C201.406 19.499 201.051 19.061 200.804 18.5669C200.557 18.0728 200.433 17.5075 200.433 16.8711C200.433 16.2347 200.564 15.647 200.826 15.1079C201.088 14.5688 201.463 14.1009 201.949 13.7041C202.443 13.2998 203.031 12.9854 203.712 12.7607C204.394 12.5361 205.154 12.4238 205.992 12.4238C207.22 12.4238 208.261 12.6597 209.114 13.1313C209.975 13.5955 210.63 14.2057 211.08 14.9619C211.529 15.7106 211.753 16.5117 211.753 17.3652H209.597C209.597 16.7513 209.466 16.2085 209.204 15.7368C208.942 15.2576 208.545 14.8833 208.014 14.6138C207.482 14.3368 206.808 14.1982 205.992 14.1982C205.221 14.1982 204.585 14.3143 204.083 14.5464C203.581 14.7785 203.207 15.0929 202.96 15.4897C202.72 15.8866 202.601 16.3395 202.601 16.8486C202.601 17.193 202.672 17.5075 202.814 17.792C202.964 18.069 203.192 18.3273 203.499 18.5669C203.813 18.8065 204.21 19.0273 204.689 19.2295C205.176 19.4316 205.756 19.6263 206.43 19.8135C207.359 20.0755 208.16 20.3675 208.833 20.6895C209.507 21.0114 210.061 21.3745 210.496 21.7788C210.937 22.1756 211.263 22.6286 211.473 23.1377C211.69 23.6393 211.798 24.2083 211.798 24.8447C211.798 25.5111 211.664 26.1138 211.394 26.6528C211.125 27.1919 210.739 27.6523 210.237 28.0342C209.736 28.416 209.133 28.7118 208.429 28.9214C207.733 29.1235 206.954 29.2246 206.093 29.2246C205.337 29.2246 204.592 29.1198 203.858 28.9102C203.132 28.7005 202.47 28.3861 201.871 27.9668C201.279 27.5475 200.804 27.0309 200.444 26.417C200.092 25.7956 199.917 25.0768 199.917 24.2607H202.073C202.073 24.8223 202.181 25.3052 202.398 25.7095C202.616 26.1063 202.911 26.4357 203.286 26.6978C203.667 26.9598 204.098 27.1545 204.577 27.2817C205.064 27.4015 205.569 27.4614 206.093 27.4614C206.849 27.4614 207.49 27.3566 208.014 27.147C208.538 26.9373 208.935 26.6379 209.204 26.2485C209.481 25.8592 209.62 25.3988 209.62 24.8672Z" fill="white"/>
</g>
<rect x="0.5" y="0.5" width="255" height="43" stroke="#00FF38"/>
</g>
<defs>
<filter id="filter0_b_45_371" x="-62" y="-62" width="380" height="168" filterUnits="userSpaceOnUse" color-interpolation-filters="sRGB">
<feFlood flood-opacity="0" result="BackgroundImageFix"/>
<feGaussianBlur in="BackgroundImageFix" stdDeviation="31"/>
<feComposite in2="SourceAlpha" operator="in" result="effect1_backgroundBlur_45_371"/>
<feBlend mode="normal" in="SourceGraphic" in2="effect1_backgroundBlur_45_371" result="shape"/>
</filter>
<clipPath id="clip0_45_371">
<rect width="256" height="44" fill="white"/>
</clipPath>
</defs>
</svg>
