<svg width="256" height="130" viewBox="0 0 256 130" fill="none" xmlns="http://www.w3.org/2000/svg">
<rect x="0.5" y="0.5" width="255" height="129" stroke="#02FC0C"/>
<path d="M65.978 28.0972L60.5649 43H58.3525L64.5854 26.6484H66.0117L65.978 28.0972ZM70.5151 43L65.0908 28.0972L65.0571 26.6484H66.4834L72.7388 43H70.5151ZM70.2344 36.9468V38.7212H61.0479V36.9468H70.2344ZM79.3535 43H75.9395L75.9619 41.2368H79.3535C80.5215 41.2368 81.4948 40.9935 82.2734 40.5068C83.0521 40.0127 83.6361 39.3239 84.0254 38.4404C84.4222 37.5495 84.6206 36.5088 84.6206 35.3184V34.3188C84.6206 33.383 84.5083 32.5519 84.2837 31.8257C84.0591 31.092 83.7297 30.4743 83.2954 29.9727C82.8612 29.4635 82.3296 29.078 81.7007 28.8159C81.0793 28.5539 80.3643 28.4229 79.5557 28.4229H75.8721V26.6484H79.5557C80.6263 26.6484 81.6034 26.8281 82.4868 27.1875C83.3703 27.5394 84.1302 28.0522 84.7666 28.7261C85.4105 29.3924 85.9046 30.201 86.249 31.1519C86.5934 32.0952 86.7656 33.1584 86.7656 34.3413V35.3184C86.7656 36.5013 86.5934 37.5682 86.249 38.519C85.9046 39.4624 85.4067 40.2673 84.7554 40.9336C84.1115 41.5999 83.3328 42.1128 82.4194 42.4722C81.5135 42.8241 80.4915 43 79.3535 43ZM77.0962 26.6484V43H74.9287V26.6484H77.0962ZM94.4473 43H91.0332L91.0557 41.2368H94.4473C95.6152 41.2368 96.5885 40.9935 97.3672 40.5068C98.1458 40.0127 98.7298 39.3239 99.1191 38.4404C99.516 37.5495 99.7144 36.5088 99.7144 35.3184V34.3188C99.7144 33.383 99.6021 32.5519 99.3774 31.8257C99.1528 31.092 98.8234 30.4743 98.3892 29.9727C97.9549 29.4635 97.4233 29.078 96.7944 28.8159C96.173 28.5539 95.458 28.4229 94.6494 28.4229H90.9658V26.6484H94.6494C95.7201 26.6484 96.6971 26.8281 97.5806 27.1875C98.464 27.5394 99.224 28.0522 99.8604 28.7261C100.504 29.3924 100.998 30.201 101.343 31.1519C101.687 32.0952 101.859 33.1584 101.859 34.3413V35.3184C101.859 36.5013 101.687 37.5682 101.343 38.519C100.998 39.4624 100.5 40.2673 99.8491 40.9336C99.2052 41.5999 98.4266 42.1128 97.5132 42.4722C96.6073 42.8241 95.5853 43 94.4473 43ZM92.1899 26.6484V43H90.0225V26.6484H92.1899ZM123.399 26.6484V43H121.221L112.989 30.3882V43H110.821V26.6484H112.989L121.254 39.2939V26.6484H123.399ZM137.628 41.2368V43H128.97V41.2368H137.628ZM129.408 26.6484V43H127.24V26.6484H129.408ZM136.483 33.6787V35.4419H128.97V33.6787H136.483ZM137.516 26.6484V28.4229H128.97V26.6484H137.516ZM144.614 38.0586L147.859 26.6484H149.432L148.522 31.0845L145.029 43H143.468L144.614 38.0586ZM141.256 26.6484L143.839 37.834L144.614 43H143.064L139.1 26.6484H141.256ZM153.632 37.8228L156.159 26.6484H158.326L154.373 43H152.823L153.632 37.8228ZM149.667 26.6484L152.823 38.0586L153.969 43H152.408L149.039 31.0845L148.118 26.6484H149.667ZM168.759 26.6484V43H166.592V26.6484H168.759ZM177.126 43H173.712L173.734 41.2368H177.126C178.294 41.2368 179.267 40.9935 180.046 40.5068C180.825 40.0127 181.409 39.3239 181.798 38.4404C182.195 37.5495 182.393 36.5088 182.393 35.3184V34.3188C182.393 33.383 182.281 32.5519 182.056 31.8257C181.832 31.092 181.502 30.4743 181.068 29.9727C180.634 29.4635 180.102 29.078 179.473 28.8159C178.852 28.5539 178.137 28.4229 177.328 28.4229H173.645V26.6484H177.328C178.399 26.6484 179.376 26.8281 180.259 27.1875C181.143 27.5394 181.903 28.0522 182.539 28.7261C183.183 29.3924 183.677 30.201 184.021 31.1519C184.366 32.0952 184.538 33.1584 184.538 34.3413V35.3184C184.538 36.5013 184.366 37.5682 184.021 38.519C183.677 39.4624 183.179 40.2673 182.528 40.9336C181.884 41.5999 181.105 42.1128 180.192 42.4722C179.286 42.8241 178.264 43 177.126 43ZM174.869 26.6484V43H172.701V26.6484H174.869ZM198.183 41.2368V43H189.524V41.2368H198.183ZM189.962 26.6484V43H187.795V26.6484H189.962ZM197.038 33.6787V35.4419H189.524V33.6787H197.038ZM198.071 26.6484V28.4229H189.524V26.6484H198.071ZM206.92 28.0972L201.507 43H199.295L205.528 26.6484H206.954L206.92 28.0972ZM211.458 43L206.033 28.0972L206 26.6484H207.426L213.681 43H211.458ZM211.177 36.9468V38.7212H201.99V36.9468H211.177Z" fill="white"/>
<rect x="106.5" y="63.5" width="50" height="51" stroke="#02FC0C"/>
<path d="M119.5 91H144.5" stroke="#02FC0C" stroke-width="6"/>
<path d="M131 79V104" stroke="#02FC0C" stroke-width="6"/>
</svg>
