<svg width="159" height="44" viewBox="0 0 159 44" fill="none" xmlns="http://www.w3.org/2000/svg">
<g filter="url(#filter0_b_36_88)">
<g clip-path="url(#clip0_36_88)">
<rect width="159" height="44" fill="white" fill-opacity="0.08"/>
<path d="M0 14V-0.490566L24 -1" stroke="#00FF38" stroke-width="9"/>
<path d="M0 28V43.5H25" stroke="#00FF38" stroke-width="9"/>
<path d="M128 0H159V13.5" stroke="#02FC0C" stroke-width="9"/>
<path d="M130 44H159V28" stroke="#02FC0C" stroke-width="9"/>
<path d="M63.3457 23.8003H65.502C65.3896 24.8335 65.0939 25.7581 64.6147 26.5742C64.1356 27.3903 63.458 28.0379 62.582 28.5171C61.7061 28.9888 60.613 29.2246 59.3027 29.2246C58.3444 29.2246 57.4722 29.0449 56.686 28.6855C55.9074 28.3262 55.2373 27.8171 54.6758 27.1582C54.1143 26.4919 53.68 25.6945 53.373 24.7661C53.0736 23.8302 52.9238 22.7896 52.9238 21.644V20.0156C52.9238 18.8701 53.0736 17.8332 53.373 16.9048C53.68 15.9689 54.118 15.1678 54.687 14.5015C55.2635 13.8351 55.9561 13.3223 56.7646 12.9629C57.5732 12.6035 58.4829 12.4238 59.4937 12.4238C60.729 12.4238 61.7734 12.6559 62.627 13.1201C63.4805 13.5843 64.1431 14.2282 64.6147 15.0518C65.0939 15.8678 65.3896 16.8149 65.502 17.8931H63.3457C63.2409 17.1294 63.0462 16.4743 62.7617 15.9277C62.4772 15.3737 62.0729 14.9469 61.5488 14.6475C61.0247 14.348 60.3397 14.1982 59.4937 14.1982C58.7674 14.1982 58.1273 14.3368 57.5732 14.6138C57.0267 14.8908 56.5662 15.2839 56.1919 15.793C55.825 16.3021 55.548 16.9123 55.3608 17.6235C55.1737 18.3348 55.0801 19.1247 55.0801 19.9932V21.644C55.0801 22.4451 55.1624 23.1976 55.3271 23.9014C55.4993 24.6051 55.7576 25.2228 56.1021 25.7544C56.4465 26.286 56.8844 26.7052 57.416 27.0122C57.9476 27.3117 58.5765 27.4614 59.3027 27.4614C60.2236 27.4614 60.9574 27.3154 61.5039 27.0234C62.0505 26.7314 62.4622 26.3122 62.7393 25.7656C63.0238 25.2191 63.2259 24.564 63.3457 23.8003ZM70.3984 11.75V29H68.3096V11.75H70.3984ZM80.8989 26.9224V20.667C80.8989 20.1878 80.8016 19.7723 80.6069 19.4204C80.4198 19.061 80.1353 18.784 79.7534 18.5894C79.3716 18.3947 78.8999 18.2974 78.3384 18.2974C77.8143 18.2974 77.3538 18.3872 76.957 18.5669C76.5677 18.7466 76.2607 18.9824 76.0361 19.2744C75.819 19.5664 75.7104 19.8809 75.7104 20.2178H73.6328C73.6328 19.7835 73.7451 19.353 73.9697 18.9263C74.1943 18.4995 74.5163 18.1139 74.9355 17.7695C75.3623 17.4176 75.8714 17.1406 76.4629 16.9385C77.0618 16.7288 77.7282 16.624 78.4619 16.624C79.3454 16.624 80.124 16.7738 80.7979 17.0732C81.4792 17.3727 82.0107 17.8257 82.3926 18.4321C82.7819 19.0311 82.9766 19.7835 82.9766 20.6895V26.3496C82.9766 26.7539 83.0103 27.1844 83.0776 27.6411C83.1525 28.0978 83.2611 28.4909 83.4033 28.8203V29H81.2358C81.131 28.7604 81.0487 28.4422 80.9888 28.0454C80.9289 27.6411 80.8989 27.2668 80.8989 26.9224ZM81.2583 21.6328L81.2808 23.0928H79.1807C78.5892 23.0928 78.0614 23.1414 77.5972 23.2388C77.133 23.3286 76.7437 23.4671 76.4292 23.6543C76.1147 23.8415 75.8752 24.0773 75.7104 24.3618C75.5457 24.6388 75.4634 24.9645 75.4634 25.3389C75.4634 25.7207 75.5495 26.0688 75.7217 26.3833C75.8939 26.6978 76.1522 26.9486 76.4966 27.1357C76.8485 27.3154 77.279 27.4053 77.7881 27.4053C78.4245 27.4053 78.986 27.2705 79.4727 27.001C79.9593 26.7314 80.3449 26.402 80.6294 26.0127C80.9214 25.6234 81.0786 25.2453 81.1011 24.8784L81.9883 25.8779C81.9359 26.1924 81.7936 26.5405 81.5615 26.9224C81.3294 27.3042 81.0187 27.6711 80.6294 28.0229C80.2476 28.3674 79.7909 28.6556 79.2593 28.8877C78.7352 29.1123 78.1437 29.2246 77.4849 29.2246C76.6613 29.2246 75.9388 29.0636 75.3174 28.7417C74.7035 28.4198 74.2243 27.9893 73.8799 27.4502C73.543 26.9036 73.3745 26.2935 73.3745 25.6196C73.3745 24.9683 73.5018 24.3955 73.7563 23.9014C74.0109 23.3997 74.3778 22.9842 74.8569 22.6548C75.3361 22.3179 75.9126 22.0633 76.5864 21.8911C77.2603 21.7189 78.0127 21.6328 78.8438 21.6328H81.2583ZM88.502 16.8486V29H86.4131V16.8486H88.502ZM86.2559 13.6255C86.2559 13.2886 86.3569 13.0041 86.5591 12.772C86.7687 12.5399 87.0757 12.4238 87.48 12.4238C87.8768 12.4238 88.18 12.5399 88.3896 12.772C88.6068 13.0041 88.7153 13.2886 88.7153 13.6255C88.7153 13.9474 88.6068 14.2244 88.3896 14.4565C88.18 14.6812 87.8768 14.7935 87.48 14.7935C87.0757 14.7935 86.7687 14.6812 86.5591 14.4565C86.3569 14.2244 86.2559 13.9474 86.2559 13.6255ZM93.9038 19.2632V29H91.8149V16.8486H93.7915L93.9038 19.2632ZM93.4771 22.4639L92.5112 22.4302C92.5187 21.5991 92.6273 20.8317 92.8369 20.1279C93.0465 19.4167 93.3573 18.799 93.769 18.2749C94.1808 17.7508 94.6937 17.3465 95.3076 17.062C95.9215 16.77 96.6328 16.624 97.4414 16.624C98.0104 16.624 98.5345 16.7064 99.0137 16.8711C99.4928 17.0283 99.9084 17.2791 100.26 17.6235C100.612 17.9679 100.885 18.4097 101.08 18.9487C101.275 19.4878 101.372 20.1392 101.372 20.9028V29H99.2944V21.0039C99.2944 20.3675 99.1859 19.8584 98.9688 19.4766C98.7591 19.0947 98.4596 18.8177 98.0703 18.6455C97.681 18.4658 97.2243 18.376 96.7002 18.376C96.0863 18.376 95.5734 18.4845 95.1616 18.7017C94.7498 18.9188 94.4204 19.2183 94.1733 19.6001C93.9263 19.9819 93.7466 20.4199 93.6343 20.9141C93.5295 21.4007 93.4771 21.9173 93.4771 22.4639ZM101.35 21.3184L99.957 21.7451C99.9645 21.0788 100.073 20.4386 100.283 19.8247C100.5 19.2108 100.811 18.6642 101.215 18.1851C101.627 17.7059 102.132 17.3278 102.731 17.0508C103.33 16.7663 104.015 16.624 104.786 16.624C105.438 16.624 106.014 16.7101 106.516 16.8823C107.025 17.0545 107.451 17.3203 107.796 17.6797C108.148 18.0316 108.414 18.4845 108.593 19.0386C108.773 19.5926 108.863 20.2515 108.863 21.0151V29H106.774V20.9927C106.774 20.3114 106.665 19.7835 106.448 19.4092C106.239 19.0273 105.939 18.7616 105.55 18.6118C105.168 18.4546 104.711 18.376 104.18 18.376C103.723 18.376 103.319 18.4546 102.967 18.6118C102.615 18.769 102.319 18.9862 102.08 19.2632C101.84 19.5327 101.657 19.8434 101.529 20.1953C101.41 20.5472 101.35 20.9215 101.35 21.3184Z" fill="white"/>
</g>
<rect x="0.5" y="0.5" width="158" height="43" stroke="#00FF38"/>
</g>
<defs>
<filter id="filter0_b_36_88" x="-62" y="-62" width="283" height="168" filterUnits="userSpaceOnUse" color-interpolation-filters="sRGB">
<feFlood flood-opacity="0" result="BackgroundImageFix"/>
<feGaussianBlur in="BackgroundImageFix" stdDeviation="31"/>
<feComposite in2="SourceAlpha" operator="in" result="effect1_backgroundBlur_36_88"/>
<feBlend mode="normal" in="SourceGraphic" in2="effect1_backgroundBlur_36_88" result="shape"/>
</filter>
<clipPath id="clip0_36_88">
<rect width="159" height="44" fill="white"/>
</clipPath>
</defs>
</svg>
