<svg width="396" height="72" viewBox="0 0 396 72" fill="none" xmlns="http://www.w3.org/2000/svg">
<g filter="url(#filter0_b_128_9)">
<g clip-path="url(#clip0_128_9)">
<rect width="396" height="72" fill="white" fill-opacity="0.08"/>
<path d="M1 27V0.509434L25 0" stroke="#00FF38" stroke-width="9"/>
<path d="M0 49V72H25" stroke="#00FF38" stroke-width="9"/>
<path d="M362.5 0.5H393.5V18" stroke="#02FC0C" stroke-width="9"/>
<path d="M364.5 71H393.5V55" stroke="#02FC0C" stroke-width="9"/>
<path d="M168.946 24.5V47H166.222V24.5H168.946ZM172.579 39.251V38.9141C172.579 37.7715 172.745 36.7119 173.077 35.7354C173.409 34.749 173.888 33.8945 174.513 33.1719C175.138 32.4395 175.895 31.873 176.783 31.4727C177.672 31.0625 178.668 30.8574 179.771 30.8574C180.885 30.8574 181.886 31.0625 182.774 31.4727C183.673 31.873 184.435 32.4395 185.06 33.1719C185.694 33.8945 186.178 34.749 186.51 35.7354C186.842 36.7119 187.008 37.7715 187.008 38.9141V39.251C187.008 40.3936 186.842 41.4531 186.51 42.4297C186.178 43.4062 185.694 44.2607 185.06 44.9932C184.435 45.7158 183.678 46.2822 182.789 46.6924C181.91 47.0928 180.914 47.293 179.801 47.293C178.688 47.293 177.687 47.0928 176.798 46.6924C175.909 46.2822 175.147 45.7158 174.513 44.9932C173.888 44.2607 173.409 43.4062 173.077 42.4297C172.745 41.4531 172.579 40.3936 172.579 39.251ZM175.289 38.9141V39.251C175.289 40.042 175.382 40.7891 175.567 41.4922C175.753 42.1855 176.031 42.8008 176.402 43.3379C176.783 43.875 177.257 44.2998 177.823 44.6123C178.39 44.915 179.049 45.0664 179.801 45.0664C180.543 45.0664 181.192 44.915 181.749 44.6123C182.315 44.2998 182.784 43.875 183.155 43.3379C183.526 42.8008 183.805 42.1855 183.99 41.4922C184.186 40.7891 184.283 40.042 184.283 39.251V38.9141C184.283 38.1328 184.186 37.3955 183.99 36.7021C183.805 35.999 183.521 35.3789 183.141 34.8418C182.77 34.2949 182.301 33.8652 181.734 33.5527C181.178 33.2402 180.523 33.084 179.771 33.084C179.029 33.084 178.375 33.2402 177.809 33.5527C177.252 33.8652 176.783 34.2949 176.402 34.8418C176.031 35.3789 175.753 35.999 175.567 36.7021C175.382 37.3955 175.289 38.1328 175.289 38.9141ZM200.675 31.1504H203.136V46.6631C203.136 48.0596 202.853 49.251 202.286 50.2373C201.72 51.2236 200.929 51.9707 199.913 52.4785C198.907 52.9961 197.745 53.2549 196.427 53.2549C195.88 53.2549 195.235 53.167 194.493 52.9912C193.761 52.8252 193.038 52.5371 192.325 52.127C191.622 51.7266 191.031 51.1846 190.553 50.501L191.974 48.8896C192.638 49.6904 193.331 50.2471 194.054 50.5596C194.786 50.8721 195.509 51.0283 196.222 51.0283C197.081 51.0283 197.823 50.8672 198.448 50.5449C199.073 50.2227 199.557 49.7441 199.898 49.1094C200.25 48.4844 200.426 47.7129 200.426 46.7949V34.6367L200.675 31.1504ZM189.762 39.251V38.9434C189.762 37.7324 189.903 36.6338 190.187 35.6475C190.479 34.6514 190.895 33.7969 191.432 33.084C191.979 32.3711 192.638 31.8242 193.409 31.4434C194.181 31.0527 195.05 30.8574 196.017 30.8574C197.013 30.8574 197.882 31.0332 198.624 31.3848C199.376 31.7266 200.011 32.2295 200.528 32.8936C201.056 33.5479 201.471 34.3389 201.773 35.2666C202.076 36.1943 202.286 37.2441 202.403 38.416V39.7637C202.296 40.9258 202.086 41.9707 201.773 42.8984C201.471 43.8262 201.056 44.6172 200.528 45.2715C200.011 45.9258 199.376 46.4287 198.624 46.7803C197.872 47.1221 196.993 47.293 195.987 47.293C195.04 47.293 194.181 47.0928 193.409 46.6924C192.647 46.292 191.993 45.7305 191.446 45.0078C190.899 44.2852 190.479 43.4355 190.187 42.459C189.903 41.4727 189.762 40.4033 189.762 39.251ZM192.472 38.9434V39.251C192.472 40.042 192.55 40.7842 192.706 41.4775C192.872 42.1709 193.121 42.7812 193.453 43.3086C193.795 43.8359 194.229 44.251 194.757 44.5537C195.284 44.8467 195.914 44.9932 196.646 44.9932C197.545 44.9932 198.287 44.8027 198.873 44.4219C199.459 44.041 199.923 43.5381 200.265 42.9131C200.616 42.2881 200.89 41.6094 201.085 40.877V37.3467C200.978 36.8096 200.812 36.292 200.587 35.7939C200.372 35.2861 200.089 34.8369 199.737 34.4463C199.396 34.0459 198.971 33.7285 198.463 33.4941C197.955 33.2598 197.359 33.1426 196.676 33.1426C195.934 33.1426 195.294 33.2988 194.757 33.6113C194.229 33.9141 193.795 34.334 193.453 34.8711C193.121 35.3984 192.872 36.0137 192.706 36.7168C192.55 37.4102 192.472 38.1523 192.472 38.9434ZM210.196 31.1504V47H207.472V31.1504H210.196ZM207.267 26.9463C207.267 26.5068 207.398 26.1357 207.662 25.833C207.936 25.5303 208.336 25.3789 208.863 25.3789C209.381 25.3789 209.776 25.5303 210.05 25.833C210.333 26.1357 210.475 26.5068 210.475 26.9463C210.475 27.3662 210.333 27.7275 210.05 28.0303C209.776 28.3232 209.381 28.4697 208.863 28.4697C208.336 28.4697 207.936 28.3232 207.662 28.0303C207.398 27.7275 207.267 27.3662 207.267 26.9463ZM217.257 34.5342V47H214.547V31.1504H217.11L217.257 34.5342ZM216.612 38.4746L215.484 38.4307C215.494 37.3467 215.655 36.3457 215.968 35.4277C216.28 34.5 216.72 33.6943 217.286 33.0107C217.853 32.3271 218.526 31.7998 219.308 31.4287C220.099 31.0479 220.973 30.8574 221.93 30.8574C222.711 30.8574 223.414 30.9648 224.039 31.1797C224.664 31.3848 225.196 31.7168 225.636 32.1758C226.085 32.6348 226.427 33.2305 226.661 33.9629C226.896 34.6855 227.013 35.5693 227.013 36.6143V47H224.288V36.585C224.288 35.7549 224.166 35.0908 223.922 34.5928C223.678 34.085 223.321 33.7188 222.853 33.4941C222.384 33.2598 221.808 33.1426 221.124 33.1426C220.45 33.1426 219.835 33.2842 219.278 33.5674C218.731 33.8506 218.258 34.2412 217.857 34.7393C217.467 35.2373 217.159 35.8086 216.935 36.4531C216.72 37.0879 216.612 37.7617 216.612 38.4746Z" fill="white"/>
</g>
<rect x="0.5" y="0.5" width="395" height="71" stroke="#00FF38"/>
</g>
<defs>
<filter id="filter0_b_128_9" x="-62" y="-62" width="520" height="196" filterUnits="userSpaceOnUse" color-interpolation-filters="sRGB">
<feFlood flood-opacity="0" result="BackgroundImageFix"/>
<feGaussianBlur in="BackgroundImageFix" stdDeviation="31"/>
<feComposite in2="SourceAlpha" operator="in" result="effect1_backgroundBlur_128_9"/>
<feBlend mode="normal" in="SourceGraphic" in2="effect1_backgroundBlur_128_9" result="shape"/>
</filter>
<clipPath id="clip0_128_9">
<rect width="396" height="72" fill="white"/>
</clipPath>
</defs>
</svg>
